<svg width="25" height="25" viewBox="0 0 25 25" fill="none" xmlns="http://www.w3.org/2000/svg">
<g clip-path="url(#clip0_191_1989)">
<path d="M4.16699 10.4166C4.16699 6.48846 4.16699 4.52388 5.38783 3.30409C6.60762 2.08325 8.5722 2.08325 12.5003 2.08325C16.4284 2.08325 18.393 2.08325 19.6128 3.30409C20.8337 4.52388 20.8337 6.48846 20.8337 10.4166V12.4999C20.8337 16.428 20.8337 18.3926 19.6128 19.6124C18.393 20.8333 16.4284 20.8333 12.5003 20.8333C8.5722 20.8333 6.60762 20.8333 5.38783 19.6124C4.16699 18.3926 4.16699 16.428 4.16699 12.4999V10.4166Z" stroke="#321A0B" stroke-width="2.5"/>
<path d="M16.146 16.6667H17.7085M7.29183 16.6667H8.85433M6.25016 20.3125V21.875C6.25016 22.1513 6.35991 22.4162 6.55526 22.6116C6.75061 22.8069 7.01556 22.9167 7.29183 22.9167H8.85433C9.1306 22.9167 9.39555 22.8069 9.5909 22.6116C9.78625 22.4162 9.896 22.1513 9.896 21.875V20.8333M18.7502 20.3125V21.875C18.7502 22.1513 18.6404 22.4162 18.4451 22.6116C18.2497 22.8069 17.9848 22.9167 17.7085 22.9167H16.146C15.8697 22.9167 15.6048 22.8069 15.4094 22.6116C15.2141 22.4162 15.1043 22.1513 15.1043 21.875V20.8333M20.8335 9.375H21.8752C22.1514 9.375 22.4164 9.48475 22.6117 9.6801C22.8071 9.87545 22.9168 10.1404 22.9168 10.4167V11.4583C22.9168 11.62 22.8792 11.7795 22.8069 11.9242C22.7345 12.0688 22.6295 12.1946 22.5002 12.2917L20.8335 13.5417H4.16683L2.50016 12.2917C2.37079 12.1946 2.26579 12.0688 2.19347 11.9242C2.12115 11.7795 2.0835 11.62 2.0835 11.4583V10.4167C2.0835 10.1404 2.19324 9.87545 2.38859 9.6801C2.58394 9.48475 2.8489 9.375 3.12516 9.375H4.16683" stroke="#321A0B" stroke-width="2.5" stroke-linecap="round" stroke-linejoin="round"/>
<path d="M20.3125 5.20825H4.6875" stroke="#321A0B" stroke-width="2.5" stroke-linecap="round"/>
</g>
<defs>
<clipPath id="clip0_191_1989">
<rect width="25" height="25" fill="white"/>
</clipPath>
</defs>
</svg>
