<svg width="40" height="40" viewBox="0 0 40 40" fill="none" xmlns="http://www.w3.org/2000/svg">
<path d="M27.0833 9.64587C26.8056 8.85837 25.9722 8.33337 25.1389 8.33337H9.86111C8.88889 8.33337 8.19444 8.85837 7.91667 9.64587L5 17.5209V28.0209C5 28.6771 5.69444 29.3334 6.38889 29.3334H7.77778C8.61111 29.3334 9.16667 28.6771 9.16667 28.0209V26.7084H25.8333V28.0209C25.8333 28.6771 26.5278 29.3334 27.2222 29.3334H28.6111C29.3056 29.3334 30 28.6771 30 28.0209V17.5209L27.0833 9.64587ZM10.2778 10.9584H24.5833L26.1111 14.8959H8.88889L10.2778 10.9584ZM27.2222 24.0834H7.77778V17.5209H27.2222V24.0834ZM11.25 18.8334C12.3611 18.8334 13.3333 19.7521 13.3333 20.8021C13.3333 21.8521 12.3611 22.7709 11.25 22.7709C10.1389 22.7709 9.16667 21.8521 9.16667 20.8021C9.16667 19.7521 10.1389 18.8334 11.25 18.8334ZM23.75 18.8334C24.8611 18.8334 25.8333 19.7521 25.8333 20.8021C25.8333 21.8521 24.8611 22.7709 23.75 22.7709C22.6389 22.7709 21.6667 21.8521 21.6667 20.8021C21.6667 19.7521 22.6389 18.8334 23.75 18.8334Z" fill="#32130B"/>
</svg>
