<svg width="405" height="31" viewBox="0 0 405 31" fill="none" xmlns="http://www.w3.org/2000/svg">
<path d="M9 5.00001C8.29286 5.00001 7.68771 4.75542 7.18457 4.26626C6.68143 3.77709 6.42943 3.18834 6.42857 2.50001C6.42771 1.81167 6.67971 1.22334 7.18457 0.735008C7.68943 0.246675 8.29457 0.00167511 9 8.44594e-06C9.70543 -0.00165822 10.311 0.243342 10.8167 0.735008C11.3224 1.22667 11.574 1.81501 11.5714 2.50001C11.5689 3.18501 11.3173 3.77376 10.8167 4.26626C10.3161 4.75876 9.71057 5.00334 9 5.00001ZM15.4286 25V18.75H9C8.29286 18.75 7.68771 18.5054 7.18457 18.0163C6.68143 17.5271 6.42943 16.9383 6.42857 16.25V8.75C6.42857 8.06251 6.68057 7.47417 7.18457 6.98501C7.68857 6.49584 8.29371 6.25084 9 6.25001C9.51429 6.25001 9.95914 6.35959 10.3346 6.57876C10.71 6.79792 11.1116 7.14667 11.5393 7.62501C12.7179 9.00001 13.7841 9.94292 14.7381 10.4538C15.6921 10.9646 16.7794 11.23 18 11.25V13.75C16.8643 13.75 15.7179 13.5104 14.5607 13.0313C13.4036 12.5521 12.4071 11.9792 11.5714 11.3125V15.625H15.4286C16.1357 15.625 16.7413 15.87 17.2453 16.36C17.7493 16.85 18.0009 17.4383 18 18.125V25H15.4286ZM6.42857 25C4.65 25 3.13414 24.3904 1.881 23.1713C0.627857 21.9521 0.000857143 20.4783 0 18.75C0 17.25 0.487714 15.9271 1.46314 14.7813C2.43857 13.6354 3.66514 12.9167 5.14286 12.625V15.1875C4.39286 15.4792 3.777 15.9429 3.29529 16.5788C2.81357 17.2146 2.57229 17.9383 2.57143 18.75C2.57143 19.7917 2.94643 20.6771 3.69643 21.4063C4.44643 22.1354 5.35714 22.5 6.42857 22.5C7.26429 22.5 8.00914 22.2658 8.66314 21.7975C9.31714 21.3292 9.79371 20.73 10.0929 20H12.7286C12.4286 21.4375 11.6893 22.6304 10.5107 23.5788C9.33214 24.5271 7.97143 25.0008 6.42857 25Z" fill="#321A0B"/>
<path d="M24.9277 16.3789V13.6152L31.7832 10.9199L24.9277 8.25391V5.50977L34.752 9.75781V12.1016L24.9277 16.3789Z" fill="black"/>
<path d="M46.6667 11.6666C46.6667 7.26709 46.6667 5.06675 48.034 3.70059C49.4002 2.33325 51.6005 2.33325 56 2.33325C60.3995 2.33325 62.5998 2.33325 63.966 3.70059C65.3333 5.06675 65.3333 7.26709 65.3333 11.6666V13.9999C65.3333 18.3994 65.3333 20.5998 63.966 21.9659C62.5998 23.3333 60.3995 23.3333 56 23.3333C51.6005 23.3333 49.4002 23.3333 48.034 21.9659C46.6667 20.5998 46.6667 18.3994 46.6667 13.9999V11.6666Z" stroke="#321A0B" stroke-width="2.5"/>
<path d="M60.0833 18.6667H61.8333M50.1667 18.6667H51.9167M49 22.75V24.5C49 24.8094 49.1229 25.1062 49.3417 25.325C49.5605 25.5438 49.8572 25.6667 50.1667 25.6667H51.9167C52.2261 25.6667 52.5228 25.5438 52.7416 25.325C52.9604 25.1062 53.0833 24.8094 53.0833 24.5V23.3333M63 22.75V24.5C63 24.8094 62.8771 25.1062 62.6583 25.325C62.4395 25.5438 62.1428 25.6667 61.8333 25.6667H60.0833C59.7739 25.6667 59.4772 25.5438 59.2584 25.325C59.0396 25.1062 58.9167 24.8094 58.9167 24.5V23.3333M65.3333 10.5H66.5C66.8094 10.5 67.1062 10.6229 67.325 10.8417C67.5438 11.0605 67.6667 11.3572 67.6667 11.6667V12.8333C67.6667 13.0145 67.6245 13.1931 67.5435 13.3551C67.4625 13.5171 67.3449 13.658 67.2 13.7667L65.3333 15.1667H46.6667L44.8 13.7667C44.6551 13.658 44.5375 13.5171 44.4565 13.3551C44.3755 13.1931 44.3333 13.0145 44.3333 12.8333V11.6667C44.3333 11.3572 44.4563 11.0605 44.675 10.8417C44.8938 10.6229 45.1906 10.5 45.5 10.5H46.6667" stroke="#321A0B" stroke-width="2.5" stroke-linecap="round" stroke-linejoin="round"/>
<path d="M64.75 5.83325H47.25" stroke="#321A0B" stroke-width="2.5" stroke-linecap="round"/>
<rect x="76" width="27" height="27" rx="5" fill="#DC4228"/>
<path d="M88.1465 9.18945L85.4902 9.48242C85.4251 8.93555 85.2559 8.5319 84.9824 8.27148C84.709 8.01107 84.3542 7.88086 83.918 7.88086C83.3385 7.88086 82.847 8.14128 82.4434 8.66211C82.0462 9.18294 81.7956 10.2669 81.6914 11.9141C82.375 11.1068 83.2246 10.7031 84.2402 10.7031C85.3861 10.7031 86.3659 11.1393 87.1797 12.0117C88 12.8841 88.4102 14.0104 88.4102 15.3906C88.4102 16.8555 87.9805 18.0306 87.1211 18.916C86.2617 19.8014 85.1582 20.2441 83.8105 20.2441C82.3652 20.2441 81.1771 19.6842 80.2461 18.5645C79.3151 17.4382 78.8496 15.5957 78.8496 13.0371C78.8496 10.4134 79.3346 8.52214 80.3047 7.36328C81.2747 6.20443 82.5345 5.625 84.084 5.625C85.1712 5.625 86.0697 5.93099 86.7793 6.54297C87.4954 7.14844 87.9512 8.0306 88.1465 9.18945ZM81.9258 15.1758C81.9258 16.0677 82.1309 16.7578 82.541 17.2461C82.9512 17.7279 83.4199 17.9688 83.9473 17.9688C84.4551 17.9688 84.8783 17.7702 85.2168 17.373C85.5553 16.9759 85.7246 16.3249 85.7246 15.4199C85.7246 14.4889 85.5423 13.8086 85.1777 13.3789C84.8132 12.9427 84.3574 12.7246 83.8105 12.7246C83.2832 12.7246 82.8372 12.9329 82.4727 13.3496C82.1081 13.7598 81.9258 14.3685 81.9258 15.1758ZM95.3633 20V17.1191H89.5039V14.7168L95.7148 5.625H98.0195V14.707H99.7969V17.1191H98.0195V20H95.3633ZM95.3633 14.707V9.81445L92.0723 14.707H95.3633Z" fill="white"/>
<path d="M118 5.20001C117.293 5.20001 116.688 4.94564 116.185 4.43691C115.681 3.92817 115.429 3.31587 115.429 2.60001C115.428 1.88414 115.68 1.27227 116.185 0.764409C116.689 0.256542 117.295 0.00174212 118 8.78378e-06C118.705 -0.00172455 119.311 0.253075 119.817 0.764409C120.322 1.27574 120.574 1.88761 120.571 2.60001C120.569 3.31241 120.317 3.92471 119.817 4.43691C119.316 4.94911 118.711 5.20347 118 5.20001ZM124.429 26V19.5H118C117.293 19.5 116.688 19.2456 116.185 18.7369C115.681 18.2282 115.429 17.6159 115.429 16.9V9.10001C115.429 8.385 115.681 7.77314 116.185 7.26441C116.689 6.75567 117.294 6.50087 118 6.50001C118.514 6.50001 118.959 6.61397 119.335 6.84191C119.71 7.06984 120.112 7.43254 120.539 7.93001C121.718 9.36001 122.784 10.3406 123.738 10.8719C124.692 11.4032 125.779 11.6792 127 11.7V14.3C125.864 14.3 124.718 14.0508 123.561 13.5525C122.404 13.0542 121.407 12.4583 120.571 11.765V16.25H124.429C125.136 16.25 125.741 16.5048 126.245 17.0144C126.749 17.524 127.001 18.1359 127 18.85V26H124.429ZM115.429 26C113.65 26 112.134 25.366 110.881 24.0981C109.628 22.8302 109.001 21.2975 109 19.5C109 17.94 109.488 16.5642 110.463 15.3725C111.439 14.1808 112.665 13.4333 114.143 13.13V15.795C113.393 16.0983 112.777 16.5806 112.295 17.2419C111.814 17.9032 111.572 18.6559 111.571 19.5C111.571 20.5833 111.946 21.5042 112.696 22.2625C113.446 23.0208 114.357 23.4 115.429 23.4C116.264 23.4 117.009 23.1565 117.663 22.6694C118.317 22.1823 118.794 21.5592 119.093 20.8H121.729C121.429 22.295 120.689 23.5356 119.511 24.5219C118.332 25.5082 116.971 26.0009 115.429 26Z" fill="#007312"/>
<path d="M133.928 16.3789V13.6152L140.783 10.9199L133.928 8.25391V5.50977L143.752 9.75781V12.1016L133.928 16.3789Z" fill="black"/>
<path d="M160 5.00001C159.293 5.00001 158.688 4.75542 158.185 4.26626C157.681 3.77709 157.429 3.18834 157.429 2.50001C157.428 1.81167 157.68 1.22334 158.185 0.735008C158.689 0.246675 159.295 0.00167511 160 8.44594e-06C160.705 -0.00165822 161.311 0.243342 161.817 0.735008C162.322 1.22667 162.574 1.81501 162.571 2.50001C162.569 3.18501 162.317 3.77376 161.817 4.26626C161.316 4.75876 160.711 5.00334 160 5.00001ZM166.429 25V18.75H160C159.293 18.75 158.688 18.5054 158.185 18.0163C157.681 17.5271 157.429 16.9383 157.429 16.25V8.75C157.429 8.06251 157.681 7.47417 158.185 6.98501C158.689 6.49584 159.294 6.25084 160 6.25001C160.514 6.25001 160.959 6.35959 161.335 6.57876C161.71 6.79792 162.112 7.14667 162.539 7.62501C163.718 9.00001 164.784 9.94292 165.738 10.4538C166.692 10.9646 167.779 11.23 169 11.25V13.75C167.864 13.75 166.718 13.5104 165.561 13.0313C164.404 12.5521 163.407 11.9792 162.571 11.3125V15.625H166.429C167.136 15.625 167.741 15.87 168.245 16.36C168.749 16.85 169.001 17.4383 169 18.125V25H166.429ZM157.429 25C155.65 25 154.134 24.3904 152.881 23.1713C151.628 21.9521 151.001 20.4783 151 18.75C151 17.25 151.488 15.9271 152.463 14.7813C153.439 13.6354 154.665 12.9167 156.143 12.625V15.1875C155.393 15.4792 154.777 15.9429 154.295 16.5788C153.814 17.2146 153.572 17.9383 153.571 18.75C153.571 19.7917 153.946 20.6771 154.696 21.4063C155.446 22.1354 156.357 22.5 157.429 22.5C158.264 22.5 159.009 22.2658 159.663 21.7975C160.317 21.3292 160.794 20.73 161.093 20H163.729C163.429 21.4375 162.689 22.6304 161.511 23.5788C160.332 24.5271 158.971 25.0008 157.429 25Z" fill="#321A0B"/>
<path d="M19.6299 25.1655L20.9482 24.9897C21.0996 25.7368 21.356 26.2764 21.7173 26.6084C22.0835 26.9355 22.5278 27.0991 23.0503 27.0991C23.6704 27.0991 24.1929 26.8843 24.6177 26.4546C25.0474 26.0249 25.2622 25.4927 25.2622 24.8579C25.2622 24.2524 25.0645 23.7544 24.6689 23.3638C24.2734 22.9683 23.7705 22.7705 23.1602 22.7705C22.9111 22.7705 22.6011 22.8193 22.23 22.917L22.3765 21.7598C22.4644 21.7695 22.5352 21.7744 22.5889 21.7744C23.1504 21.7744 23.6558 21.6279 24.105 21.335C24.5542 21.042 24.7788 20.5903 24.7788 19.98C24.7788 19.4966 24.6152 19.0962 24.2881 18.7788C23.9609 18.4614 23.5386 18.3027 23.021 18.3027C22.5083 18.3027 22.0811 18.4639 21.7393 18.7861C21.3975 19.1084 21.1777 19.5918 21.0801 20.2363L19.7617 20.002C19.9229 19.1182 20.2891 18.4346 20.8604 17.9512C21.4316 17.4629 22.1421 17.2188 22.9917 17.2188C23.5776 17.2188 24.1172 17.3457 24.6104 17.5996C25.1035 17.8486 25.4795 18.1904 25.7383 18.625C26.002 19.0596 26.1338 19.521 26.1338 20.0093C26.1338 20.4731 26.0093 20.8955 25.7603 21.2764C25.5112 21.6572 25.1426 21.96 24.6543 22.1846C25.2891 22.3311 25.7822 22.6362 26.1338 23.1001C26.4854 23.5591 26.6611 24.1353 26.6611 24.8286C26.6611 25.7661 26.3193 26.562 25.6357 27.2163C24.9521 27.8657 24.0879 28.1904 23.043 28.1904C22.1006 28.1904 21.3169 27.9097 20.6919 27.3481C20.0718 26.7866 19.7178 26.0591 19.6299 25.1655Z" fill="#7E7875"/>
<path d="M177.463 19.8921L176.152 19.9946C176.035 19.4771 175.869 19.1011 175.654 18.8667C175.298 18.4907 174.858 18.3027 174.336 18.3027C173.916 18.3027 173.547 18.4199 173.23 18.6543C172.815 18.957 172.488 19.3989 172.249 19.98C172.009 20.561 171.885 21.3887 171.875 22.4629C172.192 21.9795 172.581 21.6206 173.04 21.3862C173.499 21.1519 173.979 21.0347 174.482 21.0347C175.361 21.0347 176.108 21.3594 176.724 22.0088C177.344 22.6533 177.654 23.4883 177.654 24.5137C177.654 25.1875 177.507 25.8149 177.214 26.396C176.926 26.9722 176.528 27.4141 176.021 27.7217C175.513 28.0293 174.937 28.1831 174.292 28.1831C173.193 28.1831 172.297 27.7803 171.604 26.9746C170.911 26.1641 170.564 24.8311 170.564 22.9756C170.564 20.9004 170.947 19.3916 171.714 18.4492C172.383 17.6289 173.284 17.2188 174.417 17.2188C175.261 17.2188 175.952 17.4556 176.489 17.9292C177.031 18.4028 177.356 19.0571 177.463 19.8921ZM172.08 24.521C172.08 24.9751 172.175 25.4097 172.366 25.8247C172.561 26.2397 172.832 26.5571 173.179 26.7769C173.525 26.9917 173.889 27.0991 174.27 27.0991C174.827 27.0991 175.305 26.8745 175.706 26.4253C176.106 25.9761 176.306 25.3657 176.306 24.5942C176.306 23.8521 176.108 23.2686 175.713 22.8438C175.317 22.4141 174.819 22.1992 174.219 22.1992C173.623 22.1992 173.118 22.4141 172.703 22.8438C172.288 23.2686 172.08 23.8276 172.08 24.521Z" fill="#7E7875"/>
<path d="M366.551 12.7329V14H359.454C359.444 13.6826 359.496 13.3774 359.608 13.0845C359.789 12.6011 360.077 12.125 360.472 11.6562C360.873 11.1875 361.449 10.6455 362.201 10.0303C363.368 9.07324 364.156 8.31641 364.566 7.75977C364.977 7.19824 365.182 6.66846 365.182 6.17041C365.182 5.64795 364.994 5.2085 364.618 4.85205C364.247 4.49072 363.761 4.31006 363.16 4.31006C362.525 4.31006 362.018 4.50049 361.637 4.88135C361.256 5.26221 361.063 5.78955 361.058 6.46338L359.703 6.32422C359.796 5.31348 360.145 4.54443 360.75 4.01709C361.356 3.48486 362.169 3.21875 363.189 3.21875C364.22 3.21875 365.035 3.50439 365.636 4.07568C366.236 4.64697 366.537 5.35498 366.537 6.19971C366.537 6.62939 366.449 7.05176 366.273 7.4668C366.097 7.88184 365.804 8.31885 365.394 8.77783C364.989 9.23682 364.312 9.8667 363.365 10.6675C362.574 11.3315 362.066 11.7832 361.842 12.0225C361.617 12.2568 361.432 12.4937 361.285 12.7329H366.551ZM367.979 11.1655L369.298 10.9897C369.449 11.7368 369.706 12.2764 370.067 12.6084C370.433 12.9355 370.877 13.0991 371.4 13.0991C372.02 13.0991 372.542 12.8843 372.967 12.4546C373.397 12.0249 373.612 11.4927 373.612 10.8579C373.612 10.2524 373.414 9.75439 373.019 9.36377C372.623 8.96826 372.12 8.77051 371.51 8.77051C371.261 8.77051 370.951 8.81934 370.58 8.91699L370.726 7.75977C370.814 7.76953 370.885 7.77441 370.938 7.77441C371.5 7.77441 372.005 7.62793 372.455 7.33496C372.904 7.04199 373.128 6.59033 373.128 5.97998C373.128 5.49658 372.965 5.09619 372.638 4.77881C372.311 4.46143 371.888 4.30273 371.371 4.30273C370.858 4.30273 370.431 4.46387 370.089 4.78613C369.747 5.1084 369.527 5.5918 369.43 6.23633L368.111 6.00195C368.272 5.11816 368.639 4.43457 369.21 3.95117C369.781 3.46289 370.492 3.21875 371.341 3.21875C371.927 3.21875 372.467 3.3457 372.96 3.59961C373.453 3.84863 373.829 4.19043 374.088 4.625C374.352 5.05957 374.483 5.521 374.483 6.00928C374.483 6.47314 374.359 6.89551 374.11 7.27637C373.861 7.65723 373.492 7.95996 373.004 8.18457C373.639 8.33105 374.132 8.63623 374.483 9.1001C374.835 9.55908 375.011 10.1353 375.011 10.8286C375.011 11.7661 374.669 12.562 373.985 13.2163C373.302 13.8657 372.438 14.1904 371.393 14.1904C370.45 14.1904 369.667 13.9097 369.042 13.3481C368.421 12.7866 368.067 12.0591 367.979 11.1655ZM380.863 14V6.22168H382.042V7.31299C382.286 6.93213 382.611 6.62695 383.016 6.39746C383.421 6.16309 383.883 6.0459 384.4 6.0459C384.977 6.0459 385.448 6.16553 385.814 6.40479C386.185 6.64404 386.446 6.97852 386.598 7.4082C387.213 6.5 388.014 6.0459 389 6.0459C389.771 6.0459 390.365 6.26074 390.78 6.69043C391.195 7.11523 391.402 7.77197 391.402 8.66064V14H390.091V9.1001C390.091 8.57275 390.047 8.19434 389.959 7.96484C389.876 7.73047 389.723 7.54248 389.498 7.40088C389.273 7.25928 389.01 7.18848 388.707 7.18848C388.16 7.18848 387.706 7.37158 387.345 7.73779C386.983 8.09912 386.803 8.68018 386.803 9.48096V14H385.484V8.94629C385.484 8.36035 385.377 7.9209 385.162 7.62793C384.947 7.33496 384.596 7.18848 384.107 7.18848C383.736 7.18848 383.392 7.28613 383.075 7.48145C382.762 7.67676 382.535 7.9624 382.394 8.33838C382.252 8.71436 382.181 9.25635 382.181 9.96436V14H380.863ZM393.365 4.77881V3.2627H394.684V4.77881H393.365ZM393.365 14V6.22168H394.684V14H393.365ZM396.698 14V6.22168H397.884V7.32764C398.456 6.47314 399.281 6.0459 400.36 6.0459C400.829 6.0459 401.258 6.13135 401.649 6.30225C402.044 6.46826 402.34 6.68799 402.535 6.96143C402.73 7.23486 402.867 7.55957 402.945 7.93555C402.994 8.17969 403.019 8.60693 403.019 9.21729V14H401.7V9.26855C401.7 8.73145 401.649 8.33105 401.546 8.06738C401.444 7.79883 401.261 7.58643 400.997 7.43018C400.738 7.26904 400.433 7.18848 400.082 7.18848C399.52 7.18848 399.034 7.3667 398.624 7.72314C398.219 8.07959 398.016 8.75586 398.016 9.75195V14H396.698Z" fill="black"/>
</svg>
