<svg width="405" height="43" viewBox="0 0 405 43" fill="none" xmlns="http://www.w3.org/2000/svg">
<path d="M19.6299 37.1655L20.9482 36.9897C21.0996 37.7368 21.356 38.2764 21.7173 38.6084C22.0835 38.9355 22.5278 39.0991 23.0503 39.0991C23.6704 39.0991 24.1929 38.8843 24.6177 38.4546C25.0474 38.0249 25.2622 37.4927 25.2622 36.8579C25.2622 36.2524 25.0645 35.7544 24.6689 35.3638C24.2734 34.9683 23.7705 34.7705 23.1602 34.7705C22.9111 34.7705 22.6011 34.8193 22.23 34.917L22.3765 33.7598C22.4644 33.7695 22.5352 33.7744 22.5889 33.7744C23.1504 33.7744 23.6558 33.6279 24.105 33.335C24.5542 33.042 24.7788 32.5903 24.7788 31.98C24.7788 31.4966 24.6152 31.0962 24.2881 30.7788C23.9609 30.4614 23.5386 30.3027 23.021 30.3027C22.5083 30.3027 22.0811 30.4639 21.7393 30.7861C21.3975 31.1084 21.1777 31.5918 21.0801 32.2363L19.7617 32.002C19.9229 31.1182 20.2891 30.4346 20.8604 29.9512C21.4316 29.4629 22.1421 29.2188 22.9917 29.2188C23.5776 29.2188 24.1172 29.3457 24.6104 29.5996C25.1035 29.8486 25.4795 30.1904 25.7383 30.625C26.002 31.0596 26.1338 31.521 26.1338 32.0093C26.1338 32.4731 26.0093 32.8955 25.7603 33.2764C25.5112 33.6572 25.1426 33.96 24.6543 34.1846C25.2891 34.3311 25.7822 34.6362 26.1338 35.1001C26.4854 35.5591 26.6611 36.1353 26.6611 36.8286C26.6611 37.7661 26.3193 38.562 25.6357 39.2163C24.9521 39.8657 24.0879 40.1904 23.043 40.1904C22.1006 40.1904 21.3169 39.9097 20.6919 39.3481C20.0718 38.7866 19.7178 38.0591 19.6299 37.1655Z" fill="#7E7875"/>
<path d="M330.463 31.8921L329.152 31.9946C329.035 31.4771 328.869 31.1011 328.654 30.8667C328.298 30.4907 327.858 30.3027 327.336 30.3027C326.916 30.3027 326.547 30.4199 326.23 30.6543C325.815 30.957 325.488 31.3989 325.249 31.98C325.009 32.561 324.885 33.3887 324.875 34.4629C325.192 33.9795 325.581 33.6206 326.04 33.3862C326.499 33.1519 326.979 33.0347 327.482 33.0347C328.361 33.0347 329.108 33.3594 329.724 34.0088C330.344 34.6533 330.654 35.4883 330.654 36.5137C330.654 37.1875 330.507 37.8149 330.214 38.396C329.926 38.9722 329.528 39.4141 329.021 39.7217C328.513 40.0293 327.937 40.1831 327.292 40.1831C326.193 40.1831 325.297 39.7803 324.604 38.9746C323.911 38.1641 323.564 36.8311 323.564 34.9756C323.564 32.9004 323.947 31.3916 324.714 30.4492C325.383 29.6289 326.284 29.2188 327.417 29.2188C328.261 29.2188 328.952 29.4556 329.489 29.9292C330.031 30.4028 330.356 31.0571 330.463 31.8921ZM325.08 36.521C325.08 36.9751 325.175 37.4097 325.366 37.8247C325.561 38.2397 325.832 38.5571 326.179 38.7769C326.525 38.9917 326.889 39.0991 327.27 39.0991C327.827 39.0991 328.305 38.8745 328.706 38.4253C329.106 37.9761 329.306 37.3657 329.306 36.5942C329.306 35.8521 329.108 35.2686 328.713 34.8438C328.317 34.4141 327.819 34.1992 327.219 34.1992C326.623 34.1992 326.118 34.4141 325.703 34.8438C325.288 35.2686 325.08 35.8276 325.08 36.521Z" fill="#7E7875"/>
<path d="M366.551 12.7329V14H359.454C359.444 13.6826 359.496 13.3774 359.608 13.0845C359.789 12.6011 360.077 12.125 360.472 11.6562C360.873 11.1875 361.449 10.6455 362.201 10.0303C363.368 9.07324 364.156 8.31641 364.566 7.75977C364.977 7.19824 365.182 6.66846 365.182 6.17041C365.182 5.64795 364.994 5.2085 364.618 4.85205C364.247 4.49072 363.761 4.31006 363.16 4.31006C362.525 4.31006 362.018 4.50049 361.637 4.88135C361.256 5.26221 361.063 5.78955 361.058 6.46338L359.703 6.32422C359.796 5.31348 360.145 4.54443 360.75 4.01709C361.356 3.48486 362.169 3.21875 363.189 3.21875C364.22 3.21875 365.035 3.50439 365.636 4.07568C366.236 4.64697 366.537 5.35498 366.537 6.19971C366.537 6.62939 366.449 7.05176 366.273 7.4668C366.097 7.88184 365.804 8.31885 365.394 8.77783C364.989 9.23682 364.312 9.8667 363.365 10.6675C362.574 11.3315 362.066 11.7832 361.842 12.0225C361.617 12.2568 361.432 12.4937 361.285 12.7329H366.551ZM368.06 4.66895V3.40186H375.011V4.42725C374.327 5.15479 373.648 6.12158 372.975 7.32764C372.306 8.53369 371.788 9.77393 371.422 11.0483C371.158 11.9468 370.99 12.9307 370.917 14H369.562C369.576 13.1553 369.742 12.1348 370.06 10.9385C370.377 9.74219 370.831 8.58984 371.422 7.48145C372.018 6.36816 372.65 5.43066 373.319 4.66895H368.06ZM380.863 14V6.22168H382.042V7.31299C382.286 6.93213 382.611 6.62695 383.016 6.39746C383.421 6.16309 383.883 6.0459 384.4 6.0459C384.977 6.0459 385.448 6.16553 385.814 6.40479C386.185 6.64404 386.446 6.97852 386.598 7.4082C387.213 6.5 388.014 6.0459 389 6.0459C389.771 6.0459 390.365 6.26074 390.78 6.69043C391.195 7.11523 391.402 7.77197 391.402 8.66064V14H390.091V9.1001C390.091 8.57275 390.047 8.19434 389.959 7.96484C389.876 7.73047 389.723 7.54248 389.498 7.40088C389.273 7.25928 389.01 7.18848 388.707 7.18848C388.16 7.18848 387.706 7.37158 387.345 7.73779C386.983 8.09912 386.803 8.68018 386.803 9.48096V14H385.484V8.94629C385.484 8.36035 385.377 7.9209 385.162 7.62793C384.947 7.33496 384.596 7.18848 384.107 7.18848C383.736 7.18848 383.392 7.28613 383.075 7.48145C382.762 7.67676 382.535 7.9624 382.394 8.33838C382.252 8.71436 382.181 9.25635 382.181 9.96436V14H380.863ZM393.365 4.77881V3.2627H394.684V4.77881H393.365ZM393.365 14V6.22168H394.684V14H393.365ZM396.698 14V6.22168H397.884V7.32764C398.456 6.47314 399.281 6.0459 400.36 6.0459C400.829 6.0459 401.258 6.13135 401.649 6.30225C402.044 6.46826 402.34 6.68799 402.535 6.96143C402.73 7.23486 402.867 7.55957 402.945 7.93555C402.994 8.17969 403.019 8.60693 403.019 9.21729V14H401.7V9.26855C401.7 8.73145 401.649 8.33105 401.546 8.06738C401.444 7.79883 401.261 7.58643 400.997 7.43018C400.738 7.26904 400.433 7.18848 400.082 7.18848C399.52 7.18848 399.034 7.3667 398.624 7.72314C398.219 8.07959 398.016 8.75586 398.016 9.75195V14H396.698Z" fill="black"/>
<path d="M9 14.5C8.29286 14.5 7.68771 14.2554 7.18457 13.7663C6.68143 13.2771 6.42943 12.6883 6.42857 12C6.42771 11.3117 6.67971 10.7233 7.18457 10.235C7.68943 9.74668 8.29457 9.50168 9 9.50001C9.70543 9.49834 10.311 9.74334 10.8167 10.235C11.3224 10.7267 11.574 11.315 11.5714 12C11.5689 12.685 11.3173 13.2738 10.8167 13.7663C10.3161 14.2588 9.71057 14.5033 9 14.5ZM15.4286 34.5V28.25H9C8.29286 28.25 7.68771 28.0054 7.18457 27.5163C6.68143 27.0271 6.42943 26.4383 6.42857 25.75V18.25C6.42857 17.5625 6.68057 16.9742 7.18457 16.485C7.68857 15.9958 8.29371 15.7508 9 15.75C9.51429 15.75 9.95914 15.8596 10.3346 16.0788C10.71 16.2979 11.1116 16.6467 11.5393 17.125C12.7179 18.5 13.7841 19.4429 14.7381 19.9538C15.6921 20.4646 16.7794 20.73 18 20.75V23.25C16.8643 23.25 15.7179 23.0104 14.5607 22.5313C13.4036 22.0521 12.4071 21.4792 11.5714 20.8125V25.125H15.4286C16.1357 25.125 16.7413 25.37 17.2453 25.86C17.7493 26.35 18.0009 26.9383 18 27.625V34.5H15.4286ZM6.42857 34.5C4.65 34.5 3.13414 33.8904 1.881 32.6713C0.627857 31.4521 0.000857143 29.9783 0 28.25C0 26.75 0.487714 25.4271 1.46314 24.2813C2.43857 23.1354 3.66514 22.4167 5.14286 22.125V24.6875C4.39286 24.9792 3.777 25.4429 3.29529 26.0788C2.81357 26.7146 2.57229 27.4383 2.57143 28.25C2.57143 29.2917 2.94643 30.1771 3.69643 30.9063C4.44643 31.6354 5.35714 32 6.42857 32C7.26429 32 8.00914 31.7658 8.66314 31.2975C9.31714 30.8292 9.79371 30.23 10.0929 29.5H12.7286C12.4286 30.9375 11.6893 32.1304 10.5107 33.0788C9.33214 34.0271 7.97143 34.5008 6.42857 34.5Z" fill="#321A0B"/>
<path d="M22.9277 26.8789V24.1152L29.7832 21.4199L22.9277 18.7539V16.0098L32.752 20.2578V22.6016L22.9277 26.8789Z" fill="black"/>
<path d="M42.6667 19.6666C42.6667 15.2671 42.6667 13.0668 44.034 11.7006C45.4002 10.3333 47.6005 10.3333 52 10.3333C56.3995 10.3333 58.5998 10.3333 59.966 11.7006C61.3333 13.0668 61.3333 15.2671 61.3333 19.6666V21.9999C61.3333 26.3994 61.3333 28.5998 59.966 29.9659C58.5998 31.3333 56.3995 31.3333 52 31.3333C47.6005 31.3333 45.4002 31.3333 44.034 29.9659C42.6667 28.5998 42.6667 26.3994 42.6667 21.9999V19.6666Z" stroke="#321A0B" stroke-width="2.5"/>
<path d="M56.0833 26.6667H57.8333M46.1667 26.6667H47.9167M45 30.75V32.5C45 32.8094 45.1229 33.1062 45.3417 33.325C45.5605 33.5438 45.8572 33.6667 46.1667 33.6667H47.9167C48.2261 33.6667 48.5228 33.5438 48.7416 33.325C48.9604 33.1062 49.0833 32.8094 49.0833 32.5V31.3333M59 30.75V32.5C59 32.8094 58.8771 33.1062 58.6583 33.325C58.4395 33.5438 58.1428 33.6667 57.8333 33.6667H56.0833C55.7739 33.6667 55.4772 33.5438 55.2584 33.325C55.0396 33.1062 54.9167 32.8094 54.9167 32.5V31.3333M61.3333 18.5H62.5C62.8094 18.5 63.1062 18.6229 63.325 18.8417C63.5438 19.0605 63.6667 19.3572 63.6667 19.6667V20.8333C63.6667 21.0145 63.6245 21.1931 63.5435 21.3551C63.4625 21.5171 63.3449 21.658 63.2 21.7667L61.3333 23.1667H42.6667L40.8 21.7667C40.6551 21.658 40.5375 21.5171 40.4565 21.3551C40.3755 21.1931 40.3333 21.0145 40.3333 20.8333V19.6667C40.3333 19.3572 40.4563 19.0605 40.675 18.8417C40.8938 18.6229 41.1906 18.5 41.5 18.5H42.6667" stroke="#321A0B" stroke-width="2.5" stroke-linecap="round" stroke-linejoin="round"/>
<path d="M60.75 13.8333H43.25" stroke="#321A0B" stroke-width="2.5" stroke-linecap="round"/>
<rect x="70" y="8.5" width="27" height="27" rx="5" fill="#F2D001"/>
<path d="M82.1465 17.6895L79.4902 17.9824C79.4251 17.4355 79.2559 17.0319 78.9824 16.7715C78.709 16.5111 78.3542 16.3809 77.918 16.3809C77.3385 16.3809 76.847 16.6413 76.4434 17.1621C76.0462 17.6829 75.7956 18.7669 75.6914 20.4141C76.375 19.6068 77.2246 19.2031 78.2402 19.2031C79.3861 19.2031 80.3659 19.6393 81.1797 20.5117C82 21.3841 82.4102 22.5104 82.4102 23.8906C82.4102 25.3555 81.9805 26.5306 81.1211 27.416C80.2617 28.3014 79.1582 28.7441 77.8105 28.7441C76.3652 28.7441 75.1771 28.1842 74.2461 27.0645C73.3151 25.9382 72.8496 24.0957 72.8496 21.5371C72.8496 18.9134 73.3346 17.0221 74.3047 15.8633C75.2747 14.7044 76.5345 14.125 78.084 14.125C79.1712 14.125 80.0697 14.431 80.7793 15.043C81.4954 15.6484 81.9512 16.5306 82.1465 17.6895ZM75.9258 23.6758C75.9258 24.5677 76.1309 25.2578 76.541 25.7461C76.9512 26.2279 77.4199 26.4688 77.9473 26.4688C78.4551 26.4688 78.8783 26.2702 79.2168 25.873C79.5553 25.4759 79.7246 24.8249 79.7246 23.9199C79.7246 22.9889 79.5423 22.3086 79.1777 21.8789C78.8132 21.4427 78.3574 21.2246 77.8105 21.2246C77.2832 21.2246 76.8372 21.4329 76.4727 21.8496C76.1081 22.2598 75.9258 22.8685 75.9258 23.6758ZM91.0039 28.5H88.2598V18.1582C87.2572 19.0957 86.0755 19.7891 84.7148 20.2383V17.748C85.431 17.5137 86.209 17.071 87.0488 16.4199C87.8887 15.7624 88.4648 14.9974 88.7773 14.125H91.0039V28.5Z" fill="#321A0B"/>
<path d="M110 14.2C109.293 14.2 108.688 13.9456 108.185 13.4369C107.681 12.9282 107.429 12.3159 107.429 11.6C107.428 10.8841 107.68 10.2723 108.185 9.76441C108.689 9.25654 109.295 9.00174 110 9.00001C110.705 8.99828 111.311 9.25308 111.817 9.76441C112.322 10.2757 112.574 10.8876 112.571 11.6C112.569 12.3124 112.317 12.9247 111.817 13.4369C111.316 13.9491 110.711 14.2035 110 14.2ZM116.429 35V28.5H110C109.293 28.5 108.688 28.2456 108.185 27.7369C107.681 27.2282 107.429 26.6159 107.429 25.9V18.1C107.429 17.385 107.681 16.7731 108.185 16.2644C108.689 15.7557 109.294 15.5009 110 15.5C110.514 15.5 110.959 15.614 111.335 15.8419C111.71 16.0698 112.112 16.4325 112.539 16.93C113.718 18.36 114.784 19.3406 115.738 19.8719C116.692 20.4032 117.779 20.6792 119 20.7V23.3C117.864 23.3 116.718 23.0508 115.561 22.5525C114.404 22.0542 113.407 21.4583 112.571 20.765V25.25H116.429C117.136 25.25 117.741 25.5048 118.245 26.0144C118.749 26.524 119.001 27.1359 119 27.85V35H116.429ZM107.429 35C105.65 35 104.134 34.366 102.881 33.0981C101.628 31.8302 101.001 30.2975 101 28.5C101 26.94 101.488 25.5642 102.463 24.3725C103.439 23.1808 104.665 22.4333 106.143 22.13V24.795C105.393 25.0983 104.777 25.5806 104.295 26.2419C103.814 26.9032 103.572 27.6559 103.571 28.5C103.571 29.5833 103.946 30.5042 104.696 31.2625C105.446 32.0208 106.357 32.4 107.429 32.4C108.264 32.4 109.009 32.1565 109.663 31.6694C110.317 31.1823 110.794 30.5592 111.093 29.8H113.729C113.429 31.295 112.689 32.5356 111.511 33.5219C110.332 34.5082 108.971 35.0009 107.429 35Z" fill="#007312"/>
<path d="M123.928 26.8789V24.1152L130.783 21.4199L123.928 18.7539V16.0098L133.752 20.2578V22.6016L123.928 26.8789Z" fill="black"/>
<path d="M150.333 26.0001C150.687 26.0001 151.026 26.1406 151.276 26.3906C151.526 26.6407 151.667 26.9798 151.667 27.3334C151.667 27.687 151.526 28.0262 151.276 28.2762C151.026 28.5263 150.687 28.6667 150.333 28.6667C149.98 28.6667 149.641 28.5263 149.391 28.2762C149.14 28.0262 149 27.687 149 27.3334C149 26.9798 149.14 26.6407 149.391 26.3906C149.641 26.1406 149.98 26.0001 150.333 26.0001ZM148.333 18.0001H161.667V24.6667H148.333V18.0001ZM159.667 26.0001C160.02 26.0001 160.359 26.1406 160.609 26.3906C160.86 26.6407 161 26.9798 161 27.3334C161 27.687 160.86 28.0262 160.609 28.2762C160.359 28.5263 160.02 28.6667 159.667 28.6667C159.313 28.6667 158.974 28.5263 158.724 28.2762C158.474 28.0262 158.333 27.687 158.333 27.3334C158.333 26.9798 158.474 26.6407 158.724 26.3906C158.974 26.1406 159.313 26.0001 159.667 26.0001ZM163 27.1734V18.0001C163 14.5067 159.427 14.0001 155 14.0001C151 14.0001 147 14.4934 147 18.0001V27.1734C147 28.0999 147.368 28.9884 148.023 29.6436C148.348 29.968 148.733 30.2253 149.156 30.4008C149.58 30.5764 150.035 30.6667 150.493 30.6667L149 32.1601V32.6667H151.227L153.227 30.6667H157L159 32.6667H161V32.1601L159.493 30.6667C161.427 30.6667 163 29.1067 163 27.1734ZM162.733 9.73341C166.293 11.1201 168.333 14.0667 168.333 17.8134V35.3334H141.667V17.8134C141.667 14.0667 143.707 11.1201 147.267 9.73341C149.667 8.78675 152.52 8.66675 155 8.66675C157.48 8.66675 160.333 8.78675 162.733 9.73341Z" fill="#271C18"/>
<rect x="175" y="8.5" width="27" height="27" rx="5" fill="#E66D2D"/>
<path d="M192.617 25.9512V28.5H182.998C183.102 27.5365 183.415 26.625 183.936 25.7656C184.456 24.8997 185.485 23.7539 187.021 22.3281C188.258 21.1758 189.017 20.3945 189.297 19.9844C189.674 19.418 189.863 18.8581 189.863 18.3047C189.863 17.6927 189.697 17.224 189.365 16.8984C189.04 16.5664 188.587 16.4004 188.008 16.4004C187.435 16.4004 186.979 16.5729 186.641 16.918C186.302 17.263 186.107 17.8359 186.055 18.6367L183.32 18.3633C183.483 16.8529 183.994 15.7689 184.854 15.1113C185.713 14.4538 186.787 14.125 188.076 14.125C189.489 14.125 190.599 14.5059 191.406 15.2676C192.214 16.0293 192.617 16.9766 192.617 18.1094C192.617 18.7539 192.5 19.3691 192.266 19.9551C192.038 20.5345 191.673 21.1432 191.172 21.7812C190.84 22.2044 190.241 22.8132 189.375 23.6074C188.509 24.4017 187.959 24.929 187.725 25.1895C187.497 25.4499 187.311 25.7038 187.168 25.9512H192.617Z" fill="white"/>
<path d="M215 14.2C214.293 14.2 213.688 13.9456 213.185 13.4369C212.681 12.9282 212.429 12.3159 212.429 11.6C212.428 10.8841 212.68 10.2723 213.185 9.76441C213.689 9.25654 214.295 9.00174 215 9.00001C215.705 8.99828 216.311 9.25308 216.817 9.76441C217.322 10.2757 217.574 10.8876 217.571 11.6C217.569 12.3124 217.317 12.9247 216.817 13.4369C216.316 13.9491 215.711 14.2035 215 14.2ZM221.429 35V28.5H215C214.293 28.5 213.688 28.2456 213.185 27.7369C212.681 27.2282 212.429 26.6159 212.429 25.9V18.1C212.429 17.385 212.681 16.7731 213.185 16.2644C213.689 15.7557 214.294 15.5009 215 15.5C215.514 15.5 215.959 15.614 216.335 15.8419C216.71 16.0698 217.112 16.4325 217.539 16.93C218.718 18.36 219.784 19.3406 220.738 19.8719C221.692 20.4032 222.779 20.6792 224 20.7V23.3C222.864 23.3 221.718 23.0508 220.561 22.5525C219.404 22.0542 218.407 21.4583 217.571 20.765V25.25H221.429C222.136 25.25 222.741 25.5048 223.245 26.0144C223.749 26.524 224.001 27.1359 224 27.85V35H221.429ZM212.429 35C210.65 35 209.134 34.366 207.881 33.0981C206.628 31.8302 206.001 30.2975 206 28.5C206 26.94 206.488 25.5642 207.463 24.3725C208.439 23.1808 209.665 22.4333 211.143 22.13V24.795C210.393 25.0983 209.777 25.5806 209.295 26.2419C208.814 26.9032 208.572 27.6559 208.571 28.5C208.571 29.5833 208.946 30.5042 209.696 31.2625C210.446 32.0208 211.357 32.4 212.429 32.4C213.264 32.4 214.009 32.1565 214.663 31.6694C215.317 31.1823 215.794 30.5592 216.093 29.8H218.729C218.429 31.295 217.689 32.5356 216.511 33.5219C215.332 34.5082 213.971 35.0009 212.429 35Z" fill="#007312"/>
<rect x="228" y="8.5" width="27" height="27" rx="5" fill="#0167A2"/>
<path d="M245.646 17.6895L242.99 17.9824C242.925 17.4355 242.756 17.0319 242.482 16.7715C242.209 16.5111 241.854 16.3809 241.418 16.3809C240.839 16.3809 240.347 16.6413 239.943 17.1621C239.546 17.6829 239.296 18.7669 239.191 20.4141C239.875 19.6068 240.725 19.2031 241.74 19.2031C242.886 19.2031 243.866 19.6393 244.68 20.5117C245.5 21.3841 245.91 22.5104 245.91 23.8906C245.91 25.3555 245.48 26.5306 244.621 27.416C243.762 28.3014 242.658 28.7441 241.311 28.7441C239.865 28.7441 238.677 28.1842 237.746 27.0645C236.815 25.9382 236.35 24.0957 236.35 21.5371C236.35 18.9134 236.835 17.0221 237.805 15.8633C238.775 14.7044 240.035 14.125 241.584 14.125C242.671 14.125 243.57 14.431 244.279 15.043C244.995 15.6484 245.451 16.5306 245.646 17.6895ZM239.426 23.6758C239.426 24.5677 239.631 25.2578 240.041 25.7461C240.451 26.2279 240.92 26.4688 241.447 26.4688C241.955 26.4688 242.378 26.2702 242.717 25.873C243.055 25.4759 243.225 24.8249 243.225 23.9199C243.225 22.9889 243.042 22.3086 242.678 21.8789C242.313 21.4427 241.857 21.2246 241.311 21.2246C240.783 21.2246 240.337 21.4329 239.973 21.8496C239.608 22.2598 239.426 22.8685 239.426 23.6758Z" fill="white"/>
<path d="M270.306 11.523C270.306 10.1354 271.488 9 272.932 9C274.377 9 275.559 10.1354 275.559 11.523C275.559 12.9107 274.377 14.0461 272.932 14.0461C271.488 14.0461 270.306 12.9107 270.306 11.523ZM282.124 22.8768V20.3537C280.102 20.3789 278.067 19.4076 276.78 18.0451L275.086 16.2411C274.771 15.9384 274.508 15.787 274.259 15.6608C273.786 15.4212 273.313 15.2824 272.683 15.3328C272.039 15.3833 271.488 15.6735 271.068 16.1024L275.559 20.4168C277.253 21.7666 279.826 22.8641 282.124 22.8768ZM270.306 31.7074C268.126 31.7074 266.367 30.017 266.367 27.9229C266.367 26.2703 267.47 24.8826 268.993 24.3527V21.7414C267.831 21.9696 266.755 22.4959 265.879 23.2644C265.004 24.0329 264.361 25.0149 264.02 26.1061C263.679 27.1974 263.651 28.357 263.941 29.4619C264.231 30.5668 264.826 31.5757 265.665 32.3814C266.504 33.1871 267.554 33.7595 268.704 34.0378C269.854 34.3161 271.061 34.2899 272.197 33.9621C273.333 33.6342 274.355 33.0168 275.155 32.1756C275.955 31.3344 276.503 30.3007 276.74 29.1844H274.022C273.484 30.6477 272.026 31.7074 270.306 31.7074ZM260.865 10.0218L259 11.8006L270.306 22.6623V25.3998C270.306 26.7875 271.488 27.9229 272.932 27.9229H275.782L283.148 35L285 33.2213L260.865 10.0218Z" fill="#E00909"/>
<path d="M289.928 26.8789V24.1152L296.783 21.4199L289.928 18.7539V16.0098L299.752 20.2578V22.6016L289.928 26.8789Z" fill="black"/>
<path d="M314 14.5C313.293 14.5 312.688 14.2554 312.185 13.7663C311.681 13.2771 311.429 12.6883 311.429 12C311.428 11.3117 311.68 10.7233 312.185 10.235C312.689 9.74668 313.295 9.50168 314 9.50001C314.705 9.49834 315.311 9.74334 315.817 10.235C316.322 10.7267 316.574 11.315 316.571 12C316.569 12.685 316.317 13.2738 315.817 13.7663C315.316 14.2588 314.711 14.5033 314 14.5ZM320.429 34.5V28.25H314C313.293 28.25 312.688 28.0054 312.185 27.5163C311.681 27.0271 311.429 26.4383 311.429 25.75V18.25C311.429 17.5625 311.681 16.9742 312.185 16.485C312.689 15.9958 313.294 15.7508 314 15.75C314.514 15.75 314.959 15.8596 315.335 16.0788C315.71 16.2979 316.112 16.6467 316.539 17.125C317.718 18.5 318.784 19.4429 319.738 19.9538C320.692 20.4646 321.779 20.73 323 20.75V23.25C321.864 23.25 320.718 23.0104 319.561 22.5313C318.404 22.0521 317.407 21.4792 316.571 20.8125V25.125H320.429C321.136 25.125 321.741 25.37 322.245 25.86C322.749 26.35 323.001 26.9383 323 27.625V34.5H320.429ZM311.429 34.5C309.65 34.5 308.134 33.8904 306.881 32.6713C305.628 31.4521 305.001 29.9783 305 28.25C305 26.75 305.488 25.4271 306.463 24.2813C307.439 23.1354 308.665 22.4167 310.143 22.125V24.6875C309.393 24.9792 308.777 25.4429 308.295 26.0788C307.814 26.7146 307.572 27.4383 307.571 28.25C307.571 29.2917 307.946 30.1771 308.696 30.9063C309.446 31.6354 310.357 32 311.429 32C312.264 32 313.009 31.7658 313.663 31.2975C314.317 30.8292 314.794 30.23 315.093 29.5H317.729C317.429 30.9375 316.689 32.1304 315.511 33.0788C314.332 34.0271 312.971 34.5008 311.429 34.5Z" fill="#321A0B"/>
</svg>
