<svg width="405" height="45" viewBox="0 0 405 45" fill="none" xmlns="http://www.w3.org/2000/svg">
<path d="M22.8486 42V39.4292H18.1904V38.2207L23.0903 31.2627H24.167V38.2207H25.6172V39.4292H24.167V42H22.8486ZM22.8486 38.2207V33.3794L19.4868 38.2207H22.8486Z" fill="#7E7875"/>
<path d="M338.463 31.8921L337.152 31.9946C337.035 31.4771 336.869 31.1011 336.654 30.8667C336.298 30.4907 335.858 30.3027 335.336 30.3027C334.916 30.3027 334.547 30.4199 334.23 30.6543C333.815 30.957 333.488 31.3989 333.249 31.98C333.009 32.561 332.885 33.3887 332.875 34.4629C333.192 33.9795 333.581 33.6206 334.04 33.3862C334.499 33.1519 334.979 33.0347 335.482 33.0347C336.361 33.0347 337.108 33.3594 337.724 34.0088C338.344 34.6533 338.654 35.4883 338.654 36.5137C338.654 37.1875 338.507 37.8149 338.214 38.396C337.926 38.9722 337.528 39.4141 337.021 39.7217C336.513 40.0293 335.937 40.1831 335.292 40.1831C334.193 40.1831 333.297 39.7803 332.604 38.9746C331.911 38.1641 331.564 36.8311 331.564 34.9756C331.564 32.9004 331.947 31.3916 332.714 30.4492C333.383 29.6289 334.284 29.2188 335.417 29.2188C336.261 29.2188 336.952 29.4556 337.489 29.9292C338.031 30.4028 338.356 31.0571 338.463 31.8921ZM333.08 36.521C333.08 36.9751 333.175 37.4097 333.366 37.8247C333.561 38.2397 333.832 38.5571 334.179 38.7769C334.525 38.9917 334.889 39.0991 335.27 39.0991C335.827 39.0991 336.305 38.8745 336.706 38.4253C337.106 37.9761 337.306 37.3657 337.306 36.5942C337.306 35.8521 337.108 35.2686 336.713 34.8438C336.317 34.4141 335.819 34.1992 335.219 34.1992C334.623 34.1992 334.118 34.4141 333.703 34.8438C333.288 35.2686 333.08 35.8276 333.08 36.521Z" fill="#7E7875"/>
<path d="M359.63 11.1655L360.948 10.9897C361.1 11.7368 361.356 12.2764 361.717 12.6084C362.083 12.9355 362.528 13.0991 363.05 13.0991C363.67 13.0991 364.193 12.8843 364.618 12.4546C365.047 12.0249 365.262 11.4927 365.262 10.8579C365.262 10.2524 365.064 9.75439 364.669 9.36377C364.273 8.96826 363.771 8.77051 363.16 8.77051C362.911 8.77051 362.601 8.81934 362.23 8.91699L362.376 7.75977C362.464 7.76953 362.535 7.77441 362.589 7.77441C363.15 7.77441 363.656 7.62793 364.105 7.33496C364.554 7.04199 364.779 6.59033 364.779 5.97998C364.779 5.49658 364.615 5.09619 364.288 4.77881C363.961 4.46143 363.539 4.30273 363.021 4.30273C362.508 4.30273 362.081 4.46387 361.739 4.78613C361.397 5.1084 361.178 5.5918 361.08 6.23633L359.762 6.00195C359.923 5.11816 360.289 4.43457 360.86 3.95117C361.432 3.46289 362.142 3.21875 362.992 3.21875C363.578 3.21875 364.117 3.3457 364.61 3.59961C365.104 3.84863 365.479 4.19043 365.738 4.625C366.002 5.05957 366.134 5.521 366.134 6.00928C366.134 6.47314 366.009 6.89551 365.76 7.27637C365.511 7.65723 365.143 7.95996 364.654 8.18457C365.289 8.33105 365.782 8.63623 366.134 9.1001C366.485 9.55908 366.661 10.1353 366.661 10.8286C366.661 11.7661 366.319 12.562 365.636 13.2163C364.952 13.8657 364.088 14.1904 363.043 14.1904C362.101 14.1904 361.317 13.9097 360.692 13.3481C360.072 12.7866 359.718 12.0591 359.63 11.1655ZM367.972 8.70459C367.972 7.43506 368.102 6.41455 368.36 5.64307C368.624 4.8667 369.012 4.26855 369.525 3.84863C370.042 3.42871 370.692 3.21875 371.473 3.21875C372.049 3.21875 372.555 3.33594 372.989 3.57031C373.424 3.7998 373.783 4.13428 374.066 4.57373C374.349 5.0083 374.571 5.54053 374.732 6.17041C374.894 6.79541 374.974 7.64014 374.974 8.70459C374.974 9.96436 374.845 10.9824 374.586 11.7588C374.327 12.5303 373.939 13.1284 373.421 13.5532C372.909 13.9731 372.259 14.1831 371.473 14.1831C370.438 14.1831 369.625 13.812 369.034 13.0698C368.326 12.1763 367.972 10.7212 367.972 8.70459ZM369.327 8.70459C369.327 10.4673 369.532 11.6416 369.942 12.2275C370.357 12.8086 370.868 13.0991 371.473 13.0991C372.079 13.0991 372.586 12.8062 372.997 12.2202C373.412 11.6343 373.619 10.4624 373.619 8.70459C373.619 6.93701 373.412 5.7627 372.997 5.18164C372.586 4.60059 372.074 4.31006 371.458 4.31006C370.853 4.31006 370.37 4.56641 370.008 5.0791C369.554 5.7334 369.327 6.94189 369.327 8.70459ZM380.863 14V6.22168H382.042V7.31299C382.286 6.93213 382.611 6.62695 383.016 6.39746C383.421 6.16309 383.883 6.0459 384.4 6.0459C384.977 6.0459 385.448 6.16553 385.814 6.40479C386.185 6.64404 386.446 6.97852 386.598 7.4082C387.213 6.5 388.014 6.0459 389 6.0459C389.771 6.0459 390.365 6.26074 390.78 6.69043C391.195 7.11523 391.402 7.77197 391.402 8.66064V14H390.091V9.1001C390.091 8.57275 390.047 8.19434 389.959 7.96484C389.876 7.73047 389.723 7.54248 389.498 7.40088C389.273 7.25928 389.01 7.18848 388.707 7.18848C388.16 7.18848 387.706 7.37158 387.345 7.73779C386.983 8.09912 386.803 8.68018 386.803 9.48096V14H385.484V8.94629C385.484 8.36035 385.377 7.9209 385.162 7.62793C384.947 7.33496 384.596 7.18848 384.107 7.18848C383.736 7.18848 383.392 7.28613 383.075 7.48145C382.762 7.67676 382.535 7.9624 382.394 8.33838C382.252 8.71436 382.181 9.25635 382.181 9.96436V14H380.863ZM393.365 4.77881V3.2627H394.684V4.77881H393.365ZM393.365 14V6.22168H394.684V14H393.365ZM396.698 14V6.22168H397.884V7.32764C398.456 6.47314 399.281 6.0459 400.36 6.0459C400.829 6.0459 401.258 6.13135 401.649 6.30225C402.044 6.46826 402.34 6.68799 402.535 6.96143C402.73 7.23486 402.867 7.55957 402.945 7.93555C402.994 8.17969 403.019 8.60693 403.019 9.21729V14H401.7V9.26855C401.7 8.73145 401.649 8.33105 401.546 8.06738C401.444 7.79883 401.261 7.58643 400.997 7.43018C400.738 7.26904 400.433 7.18848 400.082 7.18848C399.52 7.18848 399.034 7.3667 398.624 7.72314C398.219 8.07959 398.016 8.75586 398.016 9.75195V14H396.698Z" fill="black"/>
<path d="M9 14.5C8.29286 14.5 7.68771 14.2554 7.18457 13.7663C6.68143 13.2771 6.42943 12.6883 6.42857 12C6.42771 11.3117 6.67971 10.7233 7.18457 10.235C7.68943 9.74668 8.29457 9.50168 9 9.50001C9.70543 9.49834 10.311 9.74334 10.8167 10.235C11.3224 10.7267 11.574 11.315 11.5714 12C11.5689 12.685 11.3173 13.2738 10.8167 13.7663C10.3161 14.2588 9.71057 14.5033 9 14.5ZM15.4286 34.5V28.25H9C8.29286 28.25 7.68771 28.0054 7.18457 27.5163C6.68143 27.0271 6.42943 26.4383 6.42857 25.75V18.25C6.42857 17.5625 6.68057 16.9742 7.18457 16.485C7.68857 15.9958 8.29371 15.7508 9 15.75C9.51429 15.75 9.95914 15.8596 10.3346 16.0788C10.71 16.2979 11.1116 16.6467 11.5393 17.125C12.7179 18.5 13.7841 19.4429 14.7381 19.9538C15.6921 20.4646 16.7794 20.73 18 20.75V23.25C16.8643 23.25 15.7179 23.0104 14.5607 22.5313C13.4036 22.0521 12.4071 21.4792 11.5714 20.8125V25.125H15.4286C16.1357 25.125 16.7413 25.37 17.2453 25.86C17.7493 26.35 18.0009 26.9383 18 27.625V34.5H15.4286ZM6.42857 34.5C4.65 34.5 3.13414 33.8904 1.881 32.6713C0.627857 31.4521 0.000857143 29.9783 0 28.25C0 26.75 0.487714 25.4271 1.46314 24.2813C2.43857 23.1354 3.66514 22.4167 5.14286 22.125V24.6875C4.39286 24.9792 3.777 25.4429 3.29529 26.0788C2.81357 26.7146 2.57229 27.4383 2.57143 28.25C2.57143 29.2917 2.94643 30.1771 3.69643 30.9063C4.44643 31.6354 5.35714 32 6.42857 32C7.26429 32 8.00914 31.7658 8.66314 31.2975C9.31714 30.8292 9.79371 30.23 10.0929 29.5H12.7286C12.4286 30.9375 11.6893 32.1304 10.5107 33.0788C9.33214 34.0271 7.97143 34.5008 6.42857 34.5Z" fill="#321A0B"/>
<path d="M22.9277 26.8789V24.1152L29.7832 21.4199L22.9277 18.7539V16.0098L32.752 20.2578V22.6016L22.9277 26.8789Z" fill="black"/>
<path d="M42.6667 19.6666C42.6667 15.2671 42.6667 13.0668 44.034 11.7006C45.4002 10.3333 47.6005 10.3333 52 10.3333C56.3995 10.3333 58.5998 10.3333 59.966 11.7006C61.3333 13.0668 61.3333 15.2671 61.3333 19.6666V21.9999C61.3333 26.3994 61.3333 28.5998 59.966 29.9659C58.5998 31.3333 56.3995 31.3333 52 31.3333C47.6005 31.3333 45.4002 31.3333 44.034 29.9659C42.6667 28.5998 42.6667 26.3994 42.6667 21.9999V19.6666Z" stroke="#321A0B" stroke-width="2.5"/>
<path d="M56.0833 26.6667H57.8333M46.1667 26.6667H47.9167M45 30.75V32.5C45 32.8094 45.1229 33.1062 45.3417 33.325C45.5605 33.5438 45.8572 33.6667 46.1667 33.6667H47.9167C48.2261 33.6667 48.5228 33.5438 48.7416 33.325C48.9604 33.1062 49.0833 32.8094 49.0833 32.5V31.3333M59 30.75V32.5C59 32.8094 58.8771 33.1062 58.6583 33.325C58.4395 33.5438 58.1428 33.6667 57.8333 33.6667H56.0833C55.7739 33.6667 55.4772 33.5438 55.2584 33.325C55.0396 33.1062 54.9167 32.8094 54.9167 32.5V31.3333M61.3333 18.5H62.5C62.8094 18.5 63.1062 18.6229 63.325 18.8417C63.5438 19.0605 63.6667 19.3572 63.6667 19.6667V20.8333C63.6667 21.0145 63.6245 21.1931 63.5435 21.3551C63.4625 21.5171 63.3449 21.658 63.2 21.7667L61.3333 23.1667H42.6667L40.8 21.7667C40.6551 21.658 40.5375 21.5171 40.4565 21.3551C40.3755 21.1931 40.3333 21.0145 40.3333 20.8333V19.6667C40.3333 19.3572 40.4563 19.0605 40.675 18.8417C40.8938 18.6229 41.1906 18.5 41.5 18.5H42.6667" stroke="#321A0B" stroke-width="2.5" stroke-linecap="round" stroke-linejoin="round"/>
<path d="M60.75 13.8333H43.25" stroke="#321A0B" stroke-width="2.5" stroke-linecap="round"/>
<rect x="70" y="8.5" width="27" height="27" rx="5" fill="#F07705"/>
<path d="M82.1172 25.9512V28.5H72.498C72.6022 27.5365 72.9147 26.625 73.4355 25.7656C73.9564 24.8997 74.985 23.7539 76.5215 22.3281C77.7585 21.1758 78.5169 20.3945 78.7969 19.9844C79.1745 19.418 79.3633 18.8581 79.3633 18.3047C79.3633 17.6927 79.1973 17.224 78.8652 16.8984C78.5397 16.5664 78.0872 16.4004 77.5078 16.4004C76.9349 16.4004 76.4792 16.5729 76.1406 16.918C75.8021 17.263 75.6068 17.8359 75.5547 18.6367L72.8203 18.3633C72.9831 16.8529 73.4941 15.7689 74.3535 15.1113C75.2129 14.4538 76.2871 14.125 77.5762 14.125C78.9889 14.125 80.099 14.5059 80.9062 15.2676C81.7135 16.0293 82.1172 16.9766 82.1172 18.1094C82.1172 18.7539 82 19.3691 81.7656 19.9551C81.5378 20.5345 81.1732 21.1432 80.6719 21.7812C80.3398 22.2044 79.7409 22.8132 78.875 23.6074C78.0091 24.4017 77.459 24.929 77.2246 25.1895C76.9967 25.4499 76.8112 25.7038 76.668 25.9512H82.1172ZM84.041 25.1895L86.6973 24.8965C86.7624 25.4368 86.9316 25.8372 87.2051 26.0977C87.4785 26.3581 87.8398 26.4883 88.2891 26.4883C88.8555 26.4883 89.3372 26.2279 89.7344 25.707C90.1315 25.1862 90.3854 24.1055 90.4961 22.4648C89.806 23.2656 88.9434 23.666 87.9082 23.666C86.7819 23.666 85.8086 23.2331 84.9883 22.3672C84.1745 21.4948 83.7676 20.362 83.7676 18.9688C83.7676 17.5169 84.1973 16.3483 85.0566 15.4629C85.9225 14.571 87.0228 14.125 88.3574 14.125C89.8092 14.125 91.0007 14.6882 91.9316 15.8145C92.8626 16.9342 93.3281 18.7799 93.3281 21.3516C93.3281 23.9688 92.8431 25.8568 91.873 27.0156C90.903 28.1745 89.64 28.7539 88.084 28.7539C86.9642 28.7539 86.0592 28.4577 85.3691 27.8652C84.679 27.2663 84.2363 26.3743 84.041 25.1895ZM90.252 19.1934C90.252 18.3079 90.0469 17.6211 89.6367 17.1328C89.2331 16.6445 88.7643 16.4004 88.2305 16.4004C87.7227 16.4004 87.2995 16.6022 86.9609 17.0059C86.6289 17.403 86.4629 18.0573 86.4629 18.9688C86.4629 19.8932 86.6452 20.5736 87.0098 21.0098C87.3743 21.4395 87.8301 21.6543 88.377 21.6543C88.9043 21.6543 89.347 21.446 89.7051 21.0293C90.0697 20.6126 90.252 20.0007 90.252 19.1934Z" fill="white"/>
<path d="M112.306 11.523C112.306 10.1354 113.488 9 114.932 9C116.377 9 117.559 10.1354 117.559 11.523C117.559 12.9107 116.377 14.0461 114.932 14.0461C113.488 14.0461 112.306 12.9107 112.306 11.523ZM124.124 22.8768V20.3537C122.102 20.3789 120.067 19.4076 118.78 18.0451L117.086 16.2411C116.771 15.9384 116.508 15.787 116.259 15.6608C115.786 15.4212 115.313 15.2824 114.683 15.3328C114.039 15.3833 113.488 15.6735 113.068 16.1024L117.559 20.4168C119.253 21.7666 121.826 22.8641 124.124 22.8768ZM112.306 31.7074C110.126 31.7074 108.367 30.017 108.367 27.9229C108.367 26.2703 109.47 24.8826 110.993 24.3527V21.7414C109.831 21.9696 108.755 22.4959 107.879 23.2644C107.004 24.0329 106.361 25.0149 106.02 26.1061C105.679 27.1974 105.651 28.357 105.941 29.4619C106.231 30.5668 106.826 31.5757 107.665 32.3814C108.504 33.1871 109.554 33.7595 110.704 34.0378C111.854 34.3161 113.061 34.2899 114.197 33.9621C115.333 33.6342 116.355 33.0168 117.155 32.1756C117.955 31.3344 118.503 30.3007 118.74 29.1844H116.022C115.484 30.6477 114.026 31.7074 112.306 31.7074ZM102.865 10.0218L101 11.8006L112.306 22.6623V25.3998C112.306 26.7875 113.488 27.9229 114.932 27.9229H117.782L125.148 35L127 33.2213L102.865 10.0218Z" fill="#E00909"/>
<path d="M131.928 26.8789V24.1152L138.783 21.4199L131.928 18.7539V16.0098L141.752 20.2578V22.6016L131.928 26.8789Z" fill="black"/>
<path d="M158.333 26.0001C158.687 26.0001 159.026 26.1406 159.276 26.3906C159.526 26.6407 159.667 26.9798 159.667 27.3334C159.667 27.687 159.526 28.0262 159.276 28.2762C159.026 28.5263 158.687 28.6667 158.333 28.6667C157.98 28.6667 157.641 28.5263 157.391 28.2762C157.14 28.0262 157 27.687 157 27.3334C157 26.9798 157.14 26.6407 157.391 26.3906C157.641 26.1406 157.98 26.0001 158.333 26.0001ZM156.333 18.0001H169.667V24.6667H156.333V18.0001ZM167.667 26.0001C168.02 26.0001 168.359 26.1406 168.609 26.3906C168.86 26.6407 169 26.9798 169 27.3334C169 27.687 168.86 28.0262 168.609 28.2762C168.359 28.5263 168.02 28.6667 167.667 28.6667C167.313 28.6667 166.974 28.5263 166.724 28.2762C166.474 28.0262 166.333 27.687 166.333 27.3334C166.333 26.9798 166.474 26.6407 166.724 26.3906C166.974 26.1406 167.313 26.0001 167.667 26.0001ZM171 27.1734V18.0001C171 14.5067 167.427 14.0001 163 14.0001C159 14.0001 155 14.4934 155 18.0001V27.1734C155 28.0999 155.368 28.9884 156.023 29.6436C156.348 29.968 156.733 30.2253 157.156 30.4008C157.58 30.5764 158.035 30.6667 158.493 30.6667L157 32.1601V32.6667H159.227L161.227 30.6667H165L167 32.6667H169V32.1601L167.493 30.6667C169.427 30.6667 171 29.1067 171 27.1734ZM170.733 9.73341C174.293 11.1201 176.333 14.0667 176.333 17.8134V35.3334H149.667V17.8134C149.667 14.0667 151.707 11.1201 155.267 9.73341C157.667 8.78675 160.52 8.66675 163 8.66675C165.48 8.66675 168.333 8.78675 170.733 9.73341Z" fill="#271C18"/>
<rect x="183" y="8.5" width="27" height="27" rx="5" fill="#E66D2D"/>
<path d="M200.617 25.9512V28.5H190.998C191.102 27.5365 191.415 26.625 191.936 25.7656C192.456 24.8997 193.485 23.7539 195.021 22.3281C196.258 21.1758 197.017 20.3945 197.297 19.9844C197.674 19.418 197.863 18.8581 197.863 18.3047C197.863 17.6927 197.697 17.224 197.365 16.8984C197.04 16.5664 196.587 16.4004 196.008 16.4004C195.435 16.4004 194.979 16.5729 194.641 16.918C194.302 17.263 194.107 17.8359 194.055 18.6367L191.32 18.3633C191.483 16.8529 191.994 15.7689 192.854 15.1113C193.713 14.4538 194.787 14.125 196.076 14.125C197.489 14.125 198.599 14.5059 199.406 15.2676C200.214 16.0293 200.617 16.9766 200.617 18.1094C200.617 18.7539 200.5 19.3691 200.266 19.9551C200.038 20.5345 199.673 21.1432 199.172 21.7812C198.84 22.2044 198.241 22.8132 197.375 23.6074C196.509 24.4017 195.959 24.929 195.725 25.1895C195.497 25.4499 195.311 25.7038 195.168 25.9512H200.617Z" fill="white"/>
<path d="M223 14.2C222.293 14.2 221.688 13.9456 221.185 13.4369C220.681 12.9282 220.429 12.3159 220.429 11.6C220.428 10.8841 220.68 10.2723 221.185 9.76441C221.689 9.25654 222.295 9.00174 223 9.00001C223.705 8.99828 224.311 9.25308 224.817 9.76441C225.322 10.2757 225.574 10.8876 225.571 11.6C225.569 12.3124 225.317 12.9247 224.817 13.4369C224.316 13.9491 223.711 14.2035 223 14.2ZM229.429 35V28.5H223C222.293 28.5 221.688 28.2456 221.185 27.7369C220.681 27.2282 220.429 26.6159 220.429 25.9V18.1C220.429 17.385 220.681 16.7731 221.185 16.2644C221.689 15.7557 222.294 15.5009 223 15.5C223.514 15.5 223.959 15.614 224.335 15.8419C224.71 16.0698 225.112 16.4325 225.539 16.93C226.718 18.36 227.784 19.3406 228.738 19.8719C229.692 20.4032 230.779 20.6792 232 20.7V23.3C230.864 23.3 229.718 23.0508 228.561 22.5525C227.404 22.0542 226.407 21.4583 225.571 20.765V25.25H229.429C230.136 25.25 230.741 25.5048 231.245 26.0144C231.749 26.524 232.001 27.1359 232 27.85V35H229.429ZM220.429 35C218.65 35 217.134 34.366 215.881 33.0981C214.628 31.8302 214.001 30.2975 214 28.5C214 26.94 214.488 25.5642 215.463 24.3725C216.439 23.1808 217.665 22.4333 219.143 22.13V24.795C218.393 25.0983 217.777 25.5806 217.295 26.2419C216.814 26.9032 216.572 27.6559 216.571 28.5C216.571 29.5833 216.946 30.5042 217.696 31.2625C218.446 32.0208 219.357 32.4 220.429 32.4C221.264 32.4 222.009 32.1565 222.663 31.6694C223.317 31.1823 223.794 30.5592 224.093 29.8H226.729C226.429 31.295 225.689 32.5356 224.511 33.5219C223.332 34.5082 221.971 35.0009 220.429 35Z" fill="#007312"/>
<rect x="236" y="8.5" width="27" height="27" rx="5" fill="#0167A2"/>
<path d="M253.646 17.6895L250.99 17.9824C250.925 17.4355 250.756 17.0319 250.482 16.7715C250.209 16.5111 249.854 16.3809 249.418 16.3809C248.839 16.3809 248.347 16.6413 247.943 17.1621C247.546 17.6829 247.296 18.7669 247.191 20.4141C247.875 19.6068 248.725 19.2031 249.74 19.2031C250.886 19.2031 251.866 19.6393 252.68 20.5117C253.5 21.3841 253.91 22.5104 253.91 23.8906C253.91 25.3555 253.48 26.5306 252.621 27.416C251.762 28.3014 250.658 28.7441 249.311 28.7441C247.865 28.7441 246.677 28.1842 245.746 27.0645C244.815 25.9382 244.35 24.0957 244.35 21.5371C244.35 18.9134 244.835 17.0221 245.805 15.8633C246.775 14.7044 248.035 14.125 249.584 14.125C250.671 14.125 251.57 14.431 252.279 15.043C252.995 15.6484 253.451 16.5306 253.646 17.6895ZM247.426 23.6758C247.426 24.5677 247.631 25.2578 248.041 25.7461C248.451 26.2279 248.92 26.4688 249.447 26.4688C249.955 26.4688 250.378 26.2702 250.717 25.873C251.055 25.4759 251.225 24.8249 251.225 23.9199C251.225 22.9889 251.042 22.3086 250.678 21.8789C250.313 21.4427 249.857 21.2246 249.311 21.2246C248.783 21.2246 248.337 21.4329 247.973 21.8496C247.608 22.2598 247.426 22.8685 247.426 23.6758Z" fill="white"/>
<path d="M278.306 11.523C278.306 10.1354 279.488 9 280.932 9C282.377 9 283.559 10.1354 283.559 11.523C283.559 12.9107 282.377 14.0461 280.932 14.0461C279.488 14.0461 278.306 12.9107 278.306 11.523ZM290.124 22.8768V20.3537C288.102 20.3789 286.067 19.4076 284.78 18.0451L283.086 16.2411C282.771 15.9384 282.508 15.787 282.259 15.6608C281.786 15.4212 281.313 15.2824 280.683 15.3328C280.039 15.3833 279.488 15.6735 279.068 16.1024L283.559 20.4168C285.253 21.7666 287.826 22.8641 290.124 22.8768ZM278.306 31.7074C276.126 31.7074 274.367 30.017 274.367 27.9229C274.367 26.2703 275.47 24.8826 276.993 24.3527V21.7414C275.831 21.9696 274.755 22.4959 273.879 23.2644C273.004 24.0329 272.361 25.0149 272.02 26.1061C271.679 27.1974 271.651 28.357 271.941 29.4619C272.231 30.5668 272.826 31.5757 273.665 32.3814C274.504 33.1871 275.554 33.7595 276.704 34.0378C277.854 34.3161 279.061 34.2899 280.197 33.9621C281.333 33.6342 282.355 33.0168 283.155 32.1756C283.955 31.3344 284.503 30.3007 284.74 29.1844H282.022C281.484 30.6477 280.026 31.7074 278.306 31.7074ZM268.865 10.0218L267 11.8006L278.306 22.6623V25.3998C278.306 26.7875 279.488 27.9229 280.932 27.9229H283.782L291.148 35L293 33.2213L268.865 10.0218Z" fill="#E00909"/>
<path d="M297.928 26.8789V24.1152L304.783 21.4199L297.928 18.7539V16.0098L307.752 20.2578V22.6016L297.928 26.8789Z" fill="black"/>
<path d="M322 14.5C321.293 14.5 320.688 14.2554 320.185 13.7663C319.681 13.2771 319.429 12.6883 319.429 12C319.428 11.3117 319.68 10.7233 320.185 10.235C320.689 9.74668 321.295 9.50168 322 9.50001C322.705 9.49834 323.311 9.74334 323.817 10.235C324.322 10.7267 324.574 11.315 324.571 12C324.569 12.685 324.317 13.2738 323.817 13.7663C323.316 14.2588 322.711 14.5033 322 14.5ZM328.429 34.5V28.25H322C321.293 28.25 320.688 28.0054 320.185 27.5163C319.681 27.0271 319.429 26.4383 319.429 25.75V18.25C319.429 17.5625 319.681 16.9742 320.185 16.485C320.689 15.9958 321.294 15.7508 322 15.75C322.514 15.75 322.959 15.8596 323.335 16.0788C323.71 16.2979 324.112 16.6467 324.539 17.125C325.718 18.5 326.784 19.4429 327.738 19.9538C328.692 20.4646 329.779 20.73 331 20.75V23.25C329.864 23.25 328.718 23.0104 327.561 22.5313C326.404 22.0521 325.407 21.4792 324.571 20.8125V25.125H328.429C329.136 25.125 329.741 25.37 330.245 25.86C330.749 26.35 331.001 26.9383 331 27.625V34.5H328.429ZM319.429 34.5C317.65 34.5 316.134 33.8904 314.881 32.6713C313.628 31.4521 313.001 29.9783 313 28.25C313 26.75 313.488 25.4271 314.463 24.2813C315.439 23.1354 316.665 22.4167 318.143 22.125V24.6875C317.393 24.9792 316.777 25.4429 316.295 26.0788C315.814 26.7146 315.572 27.4383 315.571 28.25C315.571 29.2917 315.946 30.1771 316.696 30.9063C317.446 31.6354 318.357 32 319.429 32C320.264 32 321.009 31.7658 321.663 31.2975C322.317 30.8292 322.794 30.23 323.093 29.5H325.729C325.429 30.9375 324.689 32.1304 323.511 33.0788C322.332 34.0271 320.971 34.5008 319.429 34.5Z" fill="#321A0B"/>
</svg>
