<svg width="25" height="25" viewBox="0 0 25 25" fill="none" xmlns="http://www.w3.org/2000/svg">
<path d="M12.5002 6.25005C11.9272 6.25005 11.437 6.04623 11.0293 5.63859C10.6217 5.23095 10.4175 4.74033 10.4168 4.16671C10.4161 3.5931 10.6203 3.10283 11.0293 2.69588C11.4384 2.28894 11.9286 2.08477 12.5002 2.08338C13.0717 2.08199 13.5623 2.28616 13.972 2.69588C14.3818 3.1056 14.5856 3.59588 14.5835 4.16671C14.5814 4.73755 14.3776 5.22817 13.972 5.63859C13.5665 6.04901 13.0759 6.25283 12.5002 6.25005ZM17.7085 22.9167V17.7084H12.5002C11.9272 17.7084 11.437 17.5046 11.0293 17.0969C10.6217 16.6893 10.4175 16.1987 10.4168 15.625V9.37505C10.4168 8.80213 10.621 8.31185 11.0293 7.90421C11.4377 7.49657 11.9279 7.29241 12.5002 7.29171C12.9168 7.29171 13.2772 7.38303 13.5814 7.56567C13.8856 7.74831 14.2109 8.03894 14.5575 8.43755C15.5123 9.58338 16.3762 10.3691 17.1491 10.7948C17.922 11.2205 18.8029 11.4417 19.7918 11.4584V13.5417C18.8717 13.5417 17.9429 13.3421 17.0054 12.9428C16.0679 12.5435 15.2606 12.066 14.5835 11.5105V15.1042H17.7085C18.2814 15.1042 18.772 15.3084 19.1804 15.7167C19.5887 16.125 19.7925 16.6153 19.7918 17.1875V22.9167H17.7085ZM10.4168 22.9167C8.97586 22.9167 7.74773 22.4087 6.73245 21.3928C5.71718 20.3768 5.20919 19.1487 5.2085 17.7084C5.2085 16.4584 5.60363 15.3559 6.39391 14.4011C7.18419 13.4462 8.17794 12.8473 9.37516 12.6042V14.7396C8.76752 14.9827 8.26857 15.3691 7.87829 15.899C7.48801 16.4289 7.29252 17.032 7.29183 17.7084C7.29183 18.5764 7.59565 19.3143 8.20329 19.9219C8.81093 20.5296 9.54877 20.8334 10.4168 20.8334C11.0939 20.8334 11.6974 20.6382 12.2272 20.248C12.7571 19.8577 13.1432 19.3584 13.3856 18.75H15.521C15.2779 19.948 14.679 20.9421 13.7241 21.7323C12.7693 22.5226 11.6668 22.9174 10.4168 22.9167Z" fill="#321A0B"/>
</svg>
