<svg width="50" height="50" viewBox="0 0 50 50" fill="none" xmlns="http://www.w3.org/2000/svg">
<path d="M8.12444 43.1582H41.4115C41.9522 43.1581 42.4836 43.0178 42.9537 42.7509C43.4239 42.484 43.8168 42.0996 44.094 41.6355C44.3712 41.1713 44.5232 40.6432 44.5352 40.1027C44.5472 39.5622 44.4188 39.0278 44.1625 38.5518L27.5199 7.64355C26.3393 5.45215 23.1967 5.45215 22.016 7.64355L5.37347 38.5518C5.11717 39.0278 4.98875 39.5622 5.00077 40.1027C5.01279 40.6432 5.16483 41.1713 5.44203 41.6355C5.71923 42.0996 6.11211 42.484 6.58227 42.7509C7.05244 43.0178 7.5838 43.1581 8.12444 43.1582Z" stroke="black" stroke-width="3.125" stroke-linecap="round" stroke-linejoin="round"/>
<path d="M24.2125 18.7598L24.7679 30.4733L25.3223 18.7646C25.3257 18.6898 25.3137 18.615 25.287 18.5449C25.2603 18.4748 25.2195 18.4109 25.1671 18.357C25.1147 18.303 25.0517 18.2603 24.9821 18.2313C24.9124 18.2024 24.8376 18.1878 24.7621 18.1886C24.6879 18.1893 24.6146 18.2047 24.5465 18.234C24.4785 18.2633 24.417 18.3059 24.3658 18.3591C24.3146 18.4124 24.2746 18.4752 24.2483 18.5441C24.222 18.6129 24.2098 18.6863 24.2125 18.7598Z" stroke="black" stroke-width="3.125" stroke-linecap="round" stroke-linejoin="round"/>
<path d="M24.768 38.1408C24.3853 38.1408 24.0112 38.0282 23.693 37.8172C23.3748 37.6062 23.1268 37.3063 22.9803 36.9554C22.8338 36.6046 22.7955 36.2185 22.8702 35.846C22.9449 35.4735 23.1291 35.1313 23.3998 34.8628C23.6704 34.5942 24.0152 34.4113 24.3905 34.3373C24.7659 34.2632 25.1549 34.3012 25.5085 34.4465C25.8621 34.5919 26.1643 34.838 26.3769 35.1538C26.5895 35.4695 26.703 35.8408 26.703 36.2206C26.703 36.7299 26.4991 37.2183 26.1363 37.5784C25.7734 37.9385 25.2812 38.1408 24.768 38.1408Z" fill="black"/>
</svg>
