<svg width="80" height="80" viewBox="0 0 80 80" fill="none" xmlns="http://www.w3.org/2000/svg">
<rect width="80" height="80" rx="40" fill="#FEEEDF"/>
<path d="M39.9999 30.0001C39.0833 30.0001 38.2988 29.6739 37.6466 29.0217C36.9944 28.3695 36.6677 27.5845 36.6666 26.6667C36.6655 25.7489 36.9921 24.9645 37.6466 24.3134C38.301 23.6623 39.0855 23.3356 39.9999 23.3334C40.9144 23.3312 41.6994 23.6578 42.3549 24.3134C43.0105 24.9689 43.3366 25.7534 43.3333 26.6667C43.3299 27.5801 43.0038 28.3651 42.3549 29.0217C41.706 29.6784 40.921 30.0045 39.9999 30.0001ZM48.3333 56.6667V48.3334H39.9999C39.0833 48.3334 38.2988 48.0073 37.6466 47.355C36.9944 46.7028 36.6677 45.9178 36.6666 45V35.0001C36.6666 34.0834 36.9933 33.2989 37.6466 32.6467C38.2999 31.9945 39.0844 31.6678 39.9999 31.6667C40.6666 31.6667 41.2433 31.8128 41.7299 32.1051C42.2166 32.3973 42.7371 32.8623 43.2916 33.5001C44.8194 35.3334 46.2016 36.5906 47.4382 37.2717C48.6749 37.9528 50.0844 38.3067 51.6666 38.3334V41.6667C50.1944 41.6667 48.7083 41.3473 47.2083 40.7084C45.7083 40.0695 44.4166 39.3056 43.3333 38.4167V44.1667H48.3333C49.2499 44.1667 50.0349 44.4934 50.6883 45.1467C51.3416 45.8001 51.6677 46.5845 51.6666 47.5V56.6667H48.3333ZM36.6666 56.6667C34.361 56.6667 32.396 55.8539 30.7716 54.2284C29.1471 52.6028 28.3344 50.6378 28.3333 48.3334C28.3333 46.3334 28.9655 44.5695 30.2299 43.0417C31.4944 41.5139 33.0844 40.5556 34.9999 40.1667V43.5834C34.0277 43.9723 33.2294 44.5906 32.6049 45.4384C31.9805 46.2862 31.6677 47.2512 31.6666 48.3334C31.6666 49.7223 32.1527 50.9028 33.1249 51.8751C34.0971 52.8473 35.2777 53.3334 36.6666 53.3334C37.7499 53.3334 38.7155 53.0212 39.5633 52.3967C40.411 51.7723 41.0288 50.9734 41.4166 50.0001H44.8333C44.4444 51.9167 43.486 53.5073 41.9583 54.7717C40.4305 56.0362 38.6666 56.6678 36.6666 56.6667Z" fill="#321A0B"/>
</svg>
