<svg width="81" height="80" viewBox="0 0 81 80" fill="none" xmlns="http://www.w3.org/2000/svg">
<rect x="0.5" width="80" height="80" rx="40" fill="#FEEEDF"/>
<path d="M50.25 53.25L42.875 45.875L46.375 42.375L53.75 49.75C54.2223 50.2223 54.4584 50.8056 54.4584 51.5C54.4584 52.1945 54.2223 52.7778 53.75 53.25C53.2778 53.7223 52.6945 53.9584 52 53.9584C51.3056 53.9584 50.7223 53.7223 50.25 53.25ZM27.25 53.25C26.7778 52.7778 26.5417 52.1945 26.5417 51.5C26.5417 50.8056 26.7778 50.2223 27.25 49.75L37 40L34.1667 37.1667C33.8611 37.4723 33.4722 37.625 33 37.625C32.5278 37.625 32.1389 37.4723 31.8334 37.1667L30.875 36.2084V39.9584C30.875 40.3473 30.7084 40.6112 30.375 40.75C30.0417 40.8889 29.7361 40.8195 29.4584 40.5417L24.9167 36C24.6389 35.7223 24.5695 35.4167 24.7084 35.0834C24.8472 34.75 25.1111 34.5834 25.5 34.5834H29.25L28.3334 33.6667C28 33.3334 27.8334 32.9445 27.8334 32.5C27.8334 32.0556 28 31.6667 28.3334 31.3334L33.0834 26.5834C33.6389 26.0278 34.2361 25.625 34.875 25.375C35.5139 25.125 36.1667 25 36.8334 25C37.3889 25 37.91 25.0834 38.3967 25.25C38.8834 25.4167 39.3623 25.6667 39.8334 26C40.0556 26.1389 40.1739 26.3334 40.1884 26.5834C40.2028 26.8334 40.1123 27.0556 39.9167 27.25L36.75 30.4167L37.6667 31.3334C37.9723 31.6389 38.125 32.0278 38.125 32.5C38.125 32.9723 37.9723 33.3612 37.6667 33.6667L40.5 36.5L44.25 32.75C44.1389 32.4445 44.0489 32.125 43.98 31.7917C43.9111 31.4584 43.8761 31.125 43.875 30.7917C43.875 29.1528 44.4378 27.7706 45.5634 26.645C46.6889 25.5195 48.0706 24.9573 49.7084 24.9584C49.9306 24.9584 50.1389 24.9656 50.3334 24.98C50.5278 24.9945 50.7223 25.0289 50.9167 25.0834C51.1667 25.1667 51.3267 25.3406 51.3967 25.605C51.4667 25.8695 51.4039 26.0984 51.2084 26.2917L48.5 29C48.3334 29.1667 48.25 29.3612 48.25 29.5834C48.25 29.8056 48.3334 30 48.5 30.1667L50.3334 32C50.5 32.1667 50.6945 32.25 50.9167 32.25C51.1389 32.25 51.3334 32.1667 51.5 32L54.2084 29.2917C54.4028 29.0973 54.6323 29.0278 54.8967 29.0834C55.1611 29.1389 55.3345 29.3056 55.4167 29.5834C55.4723 29.7778 55.5073 29.9723 55.5217 30.1667C55.5361 30.3612 55.5428 30.5695 55.5417 30.7917C55.5417 32.4306 54.9795 33.8123 53.855 34.9367C52.7306 36.0612 51.3484 36.6239 49.7084 36.625C49.375 36.625 49.0417 36.5973 48.7084 36.5417C48.375 36.4862 48.0556 36.3889 47.75 36.25L30.75 53.25C30.2778 53.7223 29.6945 53.9584 29 53.9584C28.3056 53.9584 27.7222 53.7223 27.25 53.25Z" fill="#321A0B"/>
</svg>
