<svg width="80" height="80" viewBox="0 0 80 80" fill="none" xmlns="http://www.w3.org/2000/svg">
<rect width="80" height="80" rx="40" fill="#FEEEDF"/>
<path d="M52.5 25.3125H27.5C26.9198 25.3125 26.3634 25.543 25.9532 25.9532C25.543 26.3634 25.3125 26.9198 25.3125 27.5V52.5C25.3125 53.0802 25.543 53.6366 25.9532 54.0468C26.3634 54.457 26.9198 54.6875 27.5 54.6875H52.5C53.0802 54.6875 53.6366 54.457 54.0468 54.0468C54.457 53.6366 54.6875 53.0802 54.6875 52.5V27.5C54.6875 26.9198 54.457 26.3634 54.0468 25.9532C53.6366 25.543 53.0802 25.3125 52.5 25.3125ZM47.8125 37.1875V52.8125H40.9375V37.1875H47.8125ZM39.0625 52.8125H32.1875V37.1875H39.0625V52.8125ZM52.8125 52.5C52.8125 52.5829 52.7796 52.6624 52.721 52.721C52.6624 52.7796 52.5829 52.8125 52.5 52.8125H49.6875V36.25C49.6875 36.0014 49.5887 35.7629 49.4129 35.5871C49.2371 35.4113 48.9986 35.3125 48.75 35.3125H31.25C31.0014 35.3125 30.7629 35.4113 30.5871 35.5871C30.4113 35.7629 30.3125 36.0014 30.3125 36.25V52.8125H27.5C27.4171 52.8125 27.3376 52.7796 27.279 52.721C27.2204 52.6624 27.1875 52.5829 27.1875 52.5V27.5C27.1875 27.4171 27.2204 27.3376 27.279 27.279C27.3376 27.2204 27.4171 27.1875 27.5 27.1875H52.5C52.5829 27.1875 52.6624 27.2204 52.721 27.279C52.7796 27.3376 52.8125 27.4171 52.8125 27.5V52.5ZM43.4375 31.25C43.4375 31.4986 43.3387 31.7371 43.1629 31.9129C42.9871 32.0887 42.7486 32.1875 42.5 32.1875H37.5C37.2514 32.1875 37.0129 32.0887 36.8371 31.9129C36.6613 31.7371 36.5625 31.4986 36.5625 31.25C36.5625 31.0014 36.6613 30.7629 36.8371 30.5871C37.0129 30.4113 37.2514 30.3125 37.5 30.3125H42.5C42.7486 30.3125 42.9871 30.4113 43.1629 30.5871C43.3387 30.7629 43.4375 31.0014 43.4375 31.25Z" fill="#321A0B"/>
</svg>
