<svg width="81" height="80" viewBox="0 0 81 80" fill="none" xmlns="http://www.w3.org/2000/svg">
<rect x="0.5" width="80" height="80" rx="40" fill="#FEEEDF"/>
<path d="M38.35 26.1583C38.35 24.325 39.85 22.825 41.6833 22.825C43.5167 22.825 45.0167 24.325 45.0167 26.1583C45.0167 27.9916 43.5167 29.4916 41.6833 29.4916C39.85 29.4916 38.35 27.9916 38.35 26.1583ZM53.35 41.1583V37.8249C50.7833 37.8583 48.2 36.575 46.5667 34.775L44.4167 32.3916C44.0167 31.9916 43.6833 31.7916 43.3667 31.625C42.7667 31.3083 42.1667 31.125 41.3667 31.1916C40.55 31.2583 39.85 31.6416 39.3167 32.2083L45.0167 37.9083C47.1667 39.6916 50.4333 41.1416 53.35 41.1583ZM38.35 52.8249C35.5833 52.8249 33.35 50.5916 33.35 47.8249C33.35 45.6416 34.75 43.8083 36.6833 43.1083V39.6583C35.2085 39.9597 33.8428 40.6551 32.7315 41.6704C31.6201 42.6857 30.8045 43.9831 30.3713 45.4248C29.9381 46.8665 29.9035 48.3985 30.2712 49.8583C30.6389 51.318 31.3951 52.6509 32.4596 53.7154C33.524 54.7798 34.8569 55.536 36.3167 55.9037C37.7764 56.2714 39.3085 56.2368 40.7502 55.8037C42.1918 55.3705 43.4892 54.5549 44.5046 53.4435C45.5199 52.3321 46.2152 50.9665 46.5167 49.4916H43.0667C42.3833 51.4249 40.5333 52.8249 38.35 52.8249ZM26.3667 24.175L24 26.525L38.35 40.8749V44.4916C38.35 46.3249 39.85 47.8249 41.6833 47.8249H45.3L54.65 57.1749L57 54.8249L26.3667 24.175Z" fill="#321A0B"/>
</svg>
