<svg width="80" height="80" viewBox="0 0 80 80" fill="none" xmlns="http://www.w3.org/2000/svg">
<rect width="80" height="80" rx="40" fill="#FEEEDF"/>
<g clip-path="url(#clip0_183_756)">
<path d="M40 20C50.684 20 60 28.82 60 39C60 49.008 50.894 56.884 40 56.884C37.67 56.8852 35.3545 56.5167 33.14 55.792C32.212 56.692 31.894 56.998 29.924 58.898C28.504 59.97 27.168 60.334 25.974 59.658C24.77 58.978 24.408 57.654 24.654 55.91L25.454 51.272C21.98 48.004 20 43.684 20 39C20 28.82 29.314 20 40 20ZM40 22.8C30.828 22.8 22.8 30.4 22.8 39C22.8 43.09 24.624 46.856 27.84 49.66L27.88 49.694L28.474 50.21L28.34 50.99L28.064 52.598L27.99 53.026L27.42 56.342C27.3864 56.5652 27.3663 56.7903 27.36 57.016V57.206C27.36 57.216 27.358 57.22 27.356 57.222C27.37 57.202 27.642 57.116 28.108 56.776L32.448 52.564L33.276 52.876C35.4268 53.6785 37.7043 54.0884 40 54.086C49.432 54.086 57.2 47.366 57.2 39C57.2 30.402 49.172 22.8 40 22.8ZM30.454 35.626C30.8569 35.6113 31.2587 35.6779 31.6352 35.822C32.0118 35.966 32.3555 36.1845 32.6458 36.4643C32.936 36.7441 33.1669 37.0796 33.3246 37.4507C33.4823 37.8218 33.5635 38.2208 33.5635 38.624C33.5635 39.0272 33.4823 39.4262 33.3246 39.7973C33.1669 40.1684 32.936 40.5039 32.6458 40.7837C32.3555 41.0635 32.0118 41.282 31.6352 41.426C31.2587 41.5701 30.8569 41.6367 30.454 41.622C29.6778 41.5936 28.9429 41.2654 28.4038 40.7062C27.8647 40.1471 27.5635 39.4007 27.5635 38.624C27.5635 37.8473 27.8647 37.1009 28.4038 36.5418C28.9429 35.9826 29.6778 35.6544 30.454 35.626ZM40.45 35.626C40.8529 35.6113 41.2547 35.6779 41.6312 35.822C42.0078 35.966 42.3515 36.1845 42.6418 36.4643C42.932 36.7441 43.1629 37.0796 43.3206 37.4507C43.4783 37.8218 43.5595 38.2208 43.5595 38.624C43.5595 39.0272 43.4783 39.4262 43.3206 39.7973C43.1629 40.1684 42.932 40.5039 42.6418 40.7837C42.3515 41.0635 42.0078 41.282 41.6312 41.426C41.2547 41.5701 40.8529 41.6367 40.45 41.622C39.6738 41.5936 38.9389 41.2654 38.3998 40.7062C37.8607 40.1471 37.5595 39.4007 37.5595 38.624C37.5595 37.8473 37.8607 37.1009 38.3998 36.5418C38.9389 35.9826 39.6738 35.6544 40.45 35.626ZM50.444 35.626C50.8469 35.6113 51.2487 35.6779 51.6252 35.822C52.0018 35.966 52.3455 36.1845 52.6358 36.4643C52.926 36.7441 53.1569 37.0796 53.3146 37.4507C53.4723 37.8218 53.5535 38.2208 53.5535 38.624C53.5535 39.0272 53.4723 39.4262 53.3146 39.7973C53.1569 40.1684 52.926 40.5039 52.6358 40.7837C52.3455 41.0635 52.0018 41.282 51.6252 41.426C51.2487 41.5701 50.8469 41.6367 50.444 41.622C49.6678 41.5936 48.9329 41.2654 48.3938 40.7062C47.8547 40.1471 47.5535 39.4007 47.5535 38.624C47.5535 37.8473 47.8547 37.1009 48.3938 36.5418C48.9329 35.9826 49.6678 35.6544 50.444 35.626Z" fill="#321A0B"/>
</g>
<defs>
<clipPath id="clip0_183_756">
<rect width="40" height="40" fill="white" transform="translate(20 20)"/>
</clipPath>
</defs>
</svg>
