<svg width="80" height="80" viewBox="0 0 80 80" fill="none" xmlns="http://www.w3.org/2000/svg">
<rect width="80" height="80" rx="40" fill="#FEEEDF"/>
<path d="M24.9999 51.6667C24.5277 51.6667 24.1321 51.5067 23.8133 51.1867C23.4944 50.8667 23.3344 50.4712 23.3333 50C23.3321 49.5289 23.4921 49.1334 23.8133 48.8134C24.1344 48.4934 24.5299 48.3334 24.9999 48.3334H33.3333V40C33.3333 39.5278 33.4933 39.1323 33.8133 38.8134C34.1333 38.4945 34.5288 38.3345 34.9999 38.3334H43.3333V30C43.3333 29.5278 43.4933 29.1323 43.8133 28.8134C44.1333 28.4945 44.5288 28.3345 44.9999 28.3334H54.9999C55.4721 28.3334 55.8683 28.4934 56.1883 28.8134C56.5083 29.1334 56.6677 29.5289 56.6666 30C56.6655 30.4712 56.5055 30.8673 56.1866 31.1884C55.8677 31.5095 55.4721 31.6689 54.9999 31.6667H46.6666V40C46.6666 40.4723 46.5066 40.8684 46.1866 41.1884C45.8666 41.5084 45.471 41.6678 44.9999 41.6667H36.6666V50C36.6666 50.4723 36.5066 50.8684 36.1866 51.1884C35.8666 51.5084 35.471 51.6678 34.9999 51.6667H24.9999Z" fill="#321A0B"/>
</svg>
