<svg width="80" height="80" viewBox="0 0 80 80" fill="none" xmlns="http://www.w3.org/2000/svg">
<rect width="80" height="80" rx="40" fill="#FEEEDF"/>
<path d="M24.9999 53.0833C24.5277 53.0833 24.1321 52.9233 23.8133 52.6033C23.4944 52.2833 23.3344 51.8878 23.3333 51.4167C23.3321 50.9456 23.4921 50.55 23.8133 50.23C24.1344 49.91 24.5299 49.75 24.9999 49.75H33.3333V41.4167C33.3333 40.9444 33.4933 40.5489 33.8133 40.23C34.1333 39.9111 34.5288 39.7511 34.9999 39.75H43.3333V31.4167C43.3333 30.9444 43.4933 30.5489 43.8133 30.23C44.1333 29.9111 44.5288 29.7511 44.9999 29.75H54.9999C55.4721 29.75 55.8683 29.91 56.1883 30.23C56.5083 30.55 56.6677 30.9456 56.6666 31.4167C56.6655 31.8878 56.5055 32.2839 56.1866 32.605C55.8677 32.9261 55.4721 33.0856 54.9999 33.0833H46.6666V41.4167C46.6666 41.8889 46.5066 42.285 46.1866 42.605C45.8666 42.925 45.471 43.0844 44.9999 43.0833H36.6666V51.4167C36.6666 51.8889 36.5066 52.285 36.1866 52.605C35.8666 52.925 35.471 53.0844 34.9999 53.0833H24.9999Z" fill="#321A0B"/>
<path d="M53 51.9166L29 26.9166" stroke="#321A0B" stroke-width="3" stroke-linecap="round"/>
</svg>
